<?xml version="1.0" encoding="UTF-8"?>
<svg id="Layer_2" xmlns="http://www.w3.org/2000/svg" viewBox="0 0 46.45 23.21">
  <defs>
    <style>
      .cls-1 {
        fill: #0539b3;
      }

      .cls-2 {
        fill: #032f87;
      }

      .cls-3 {
        fill: #91f0ff;
      }

      .cls-4 {
        fill: #4165a3;
      }

      .cls-5 {
        fill: #0ba5f4;
      }

      .cls-6 {
        fill: #afb1b4;
      }

      .cls-7 {
        fill: #6bb6ef;
      }

      .cls-8 {
        fill: #02237d;
      }

      .cls-9 {
        fill: #0876dd;
      }

      .cls-10 {
        fill: #4bd4f7;
      }

      .cls-11 {
        fill: #03408d;
      }

      .cls-12 {
        fill: #175ab2;
      }

      .cls-13 {
        fill: #0951b2;
      }

      .cls-14 {
        fill: #2145a2;
      }

      .cls-15 {
        fill: #42a3e6;
      }

      .cls-16 {
        fill: #70e1fd;
      }

      .cls-17 {
        fill: #69cafb;
      }

      .cls-18 {
        fill: #29bbf1;
      }

      .cls-19 {
        fill: #1f73ca;
      }

      .cls-20 {
        fill: #0da4f4;
      }

      .cls-21 {
        fill: #0b8eed;
      }

      .cls-22 {
        fill: #022e90;
      }

      .cls-23 {
        fill: #0b68d4;
      }

      .cls-24 {
        fill: #4170ce;
      }

      .cls-25 {
        fill: #54a9ef;
      }

      .cls-26 {
        fill: #6191d6;
      }

      .cls-27 {
        fill: #757679;
      }

      .cls-28 {
        fill: #6076df;
      }

      .cls-29 {
        fill: #68f3fb;
      }

      .cls-30 {
        fill: #7ce1f2;
      }

      .cls-31 {
        fill: #85e8fb;
      }

      .cls-32 {
        fill: #84cde0;
      }

      .cls-33 {
        fill: #5380c9;
      }

      .cls-34 {
        fill: #999b9e;
      }

      .cls-35 {
        fill: #0863b4;
      }

      .cls-36 {
        fill: #042d9f;
      }
    </style>
  </defs>
  <g id="Layer_1-2" data-name="Layer_1">
    <g>
      <g>
        <g>
          <polygon class="cls-6" points="28.15 5 27.18 5 27.18 3.57 28.15 5"/>
          <polygon class="cls-27" points="28.15 5 29.11 3.57 30.07 5 28.15 5"/>
          <polygon class="cls-6" points="30.07 5 29.11 3.57 31.04 3.57 30.07 5"/>
          <polygon class="cls-34" points="27.18 3.57 29.11 3.57 28.15 5 27.18 3.57"/>
          <polygon class="cls-6" points="33.93 5 32 5 32.96 3.57 33.93 5"/>
          <polygon class="cls-27" points="32.96 3.57 32 5 31.04 3.57 32.96 3.57"/>
          <polygon class="cls-34" points="31.04 3.57 32 5 30.07 5 31.04 3.57"/>
          <polygon class="cls-27" points="33.93 5 34.89 3.57 35.85 5 33.93 5"/>
          <polygon class="cls-6" points="35.85 5 34.89 3.57 36.82 3.57 35.85 5"/>
          <polygon class="cls-34" points="32.96 3.57 34.89 3.57 33.93 5 32.96 3.57"/>
        </g>
        <g>
          <polygon class="cls-6" points="39.71 5 37.78 5 38.74 3.57 39.71 5"/>
          <polygon class="cls-27" points="38.74 3.57 37.78 5 36.82 3.57 38.74 3.57"/>
          <polygon class="cls-34" points="36.82 3.57 37.78 5 35.85 5 36.82 3.57"/>
          <polygon class="cls-27" points="39.71 5 40.67 3.57 41.63 5 39.71 5"/>
          <polygon class="cls-6" points="41.63 5 40.67 3.57 42.6 3.57 41.63 5"/>
          <polygon class="cls-34" points="38.74 3.57 40.67 3.57 39.71 5 38.74 3.57"/>
          <polygon class="cls-6" points="45.49 5 43.56 5 44.52 3.57 45.49 5"/>
          <polygon class="cls-27" points="44.52 3.57 43.56 5 42.6 3.57 44.52 3.57"/>
          <polygon class="cls-34" points="42.6 3.57 43.56 5 41.63 5 42.6 3.57"/>
          <polygon class="cls-27" points="46.45 3.57 46.45 5 45.49 5 46.45 3.57"/>
          <polygon class="cls-34" points="44.52 3.57 46.45 3.57 45.49 5 44.52 3.57"/>
        </g>
      </g>
      <g>
        <g>
          <polygon class="cls-6" points="25.6 8.02 24.71 8.02 24.71 6.59 25.6 8.02"/>
          <polygon class="cls-27" points="25.6 8.02 26.48 6.59 27.37 8.02 25.6 8.02"/>
          <polygon class="cls-6" points="27.37 8.02 26.48 6.59 28.25 6.59 27.37 8.02"/>
          <polygon class="cls-34" points="24.71 6.59 26.48 6.59 25.6 8.02 24.71 6.59"/>
          <polygon class="cls-6" points="30.91 8.02 29.14 8.02 30.02 6.59 30.91 8.02"/>
          <polygon class="cls-27" points="30.02 6.59 29.14 8.02 28.25 6.59 30.02 6.59"/>
          <polygon class="cls-34" points="28.25 6.59 29.14 8.02 27.37 8.02 28.25 6.59"/>
          <polygon class="cls-27" points="30.91 8.02 31.79 6.59 32.68 8.02 30.91 8.02"/>
          <polygon class="cls-6" points="32.68 8.02 31.79 6.59 33.56 6.59 32.68 8.02"/>
          <polygon class="cls-34" points="30.02 6.59 31.79 6.59 30.91 8.02 30.02 6.59"/>
        </g>
        <g>
          <polygon class="cls-6" points="36.22 8.02 34.45 8.02 35.34 6.59 36.22 8.02"/>
          <polygon class="cls-27" points="35.34 6.59 34.45 8.02 33.56 6.59 35.34 6.59"/>
          <polygon class="cls-34" points="33.56 6.59 34.45 8.02 32.68 8.02 33.56 6.59"/>
          <polygon class="cls-27" points="36.22 8.02 37.11 6.59 37.99 8.02 36.22 8.02"/>
          <polygon class="cls-6" points="37.99 8.02 37.11 6.59 38.88 6.59 37.99 8.02"/>
          <polygon class="cls-34" points="35.34 6.59 37.11 6.59 36.22 8.02 35.34 6.59"/>
          <polygon class="cls-6" points="41.53 8.02 39.76 8.02 40.65 6.59 41.53 8.02"/>
          <polygon class="cls-27" points="40.65 6.59 39.76 8.02 38.88 6.59 40.65 6.59"/>
          <polygon class="cls-34" points="38.88 6.59 39.76 8.02 37.99 8.02 38.88 6.59"/>
          <polygon class="cls-27" points="42.42 6.59 42.42 8.02 41.53 8.02 42.42 6.59"/>
          <polygon class="cls-34" points="40.65 6.59 42.42 6.59 41.53 8.02 40.65 6.59"/>
        </g>
      </g>
      <g>
        <g>
          <polygon class="cls-6" points="30.9 11.09 30.16 11.09 30.16 9.66 30.9 11.09"/>
          <polygon class="cls-27" points="30.9 11.09 31.65 9.67 32.39 11.09 30.9 11.09"/>
          <polygon class="cls-6" points="32.39 11.09 31.65 9.67 33.13 9.67 32.39 11.09"/>
          <polygon class="cls-34" points="30.16 9.67 31.65 9.67 30.9 11.09 30.16 9.67"/>
          <polygon class="cls-6" points="35.36 11.09 33.88 11.09 34.62 9.67 35.36 11.09"/>
          <polygon class="cls-27" points="34.62 9.67 33.88 11.09 33.13 9.67 34.62 9.67"/>
          <polygon class="cls-34" points="33.13 9.67 33.88 11.09 32.39 11.09 33.13 9.67"/>
          <polygon class="cls-27" points="35.36 11.09 36.1 9.67 36.85 11.09 35.36 11.09"/>
          <polygon class="cls-6" points="36.85 11.09 36.1 9.67 37.59 9.67 36.85 11.09"/>
          <polygon class="cls-34" points="34.62 9.67 36.1 9.67 35.36 11.09 34.62 9.67"/>
        </g>
        <g>
          <polygon class="cls-6" points="39.82 11.09 38.33 11.09 39.08 9.67 39.82 11.09"/>
          <polygon class="cls-27" points="39.08 9.67 38.33 11.09 37.59 9.67 39.08 9.67"/>
          <polygon class="cls-34" points="37.59 9.67 38.33 11.09 36.85 11.09 37.59 9.67"/>
          <polygon class="cls-27" points="39.82 11.09 40.56 9.67 41.31 11.09 39.82 11.09"/>
          <polygon class="cls-6" points="41.31 11.09 40.56 9.67 42.05 9.67 41.31 11.09"/>
          <polygon class="cls-34" points="39.08 9.67 40.56 9.67 39.82 11.09 39.08 9.67"/>
          <polygon class="cls-6" points="44.28 11.09 42.79 11.09 43.54 9.67 44.28 11.09"/>
          <polygon class="cls-27" points="43.54 9.67 42.79 11.09 42.05 9.67 43.54 9.67"/>
          <polygon class="cls-34" points="42.05 9.67 42.79 11.09 41.31 11.09 42.05 9.67"/>
          <polygon class="cls-27" points="45.02 9.66 45.02 11.09 44.28 11.09 45.02 9.66"/>
          <polygon class="cls-34" points="43.54 9.67 45.02 9.67 44.28 11.09 43.54 9.67"/>
        </g>
      </g>
      <g>
        <g>
          <polygon class="cls-6" points="32.55 23.21 33.59 23.21 33.59 21.78 32.55 23.21"/>
          <polygon class="cls-27" points="32.55 23.2 31.51 21.78 30.47 23.2 32.55 23.2"/>
          <polygon class="cls-6" points="30.47 23.2 31.51 21.78 29.43 21.78 30.47 23.2"/>
          <polygon class="cls-34" points="33.59 21.78 31.51 21.78 32.55 23.2 33.59 21.78"/>
          <polygon class="cls-6" points="26.3 23.2 28.38 23.2 27.34 21.78 26.3 23.2"/>
          <polygon class="cls-27" points="27.34 21.78 28.38 23.2 29.43 21.78 27.34 21.78"/>
          <polygon class="cls-34" points="29.43 21.78 28.38 23.2 30.47 23.2 29.43 21.78"/>
          <polygon class="cls-27" points="26.3 23.2 25.26 21.78 24.22 23.2 26.3 23.2"/>
          <polygon class="cls-6" points="24.22 23.2 25.26 21.78 23.18 21.78 24.22 23.2"/>
          <polygon class="cls-34" points="27.34 21.78 25.26 21.78 26.3 23.2 27.34 21.78"/>
        </g>
        <g>
          <polygon class="cls-6" points="20.05 23.2 22.14 23.2 21.09 21.78 20.05 23.2"/>
          <polygon class="cls-27" points="21.09 21.78 22.14 23.2 23.18 21.78 21.09 21.78"/>
          <polygon class="cls-34" points="23.18 21.78 22.14 23.2 24.22 23.2 23.18 21.78"/>
          <polygon class="cls-27" points="20.05 23.2 19.01 21.78 17.97 23.2 20.05 23.2"/>
          <polygon class="cls-6" points="17.97 23.2 19.01 21.78 16.93 21.78 17.97 23.2"/>
          <polygon class="cls-34" points="21.09 21.78 19.01 21.78 20.05 23.2 21.09 21.78"/>
          <polygon class="cls-6" points="13.8 23.2 15.89 23.2 14.84 21.78 13.8 23.2"/>
          <polygon class="cls-27" points="14.84 21.78 15.89 23.2 16.93 21.78 14.84 21.78"/>
          <polygon class="cls-34" points="16.93 21.78 15.89 23.2 17.97 23.2 16.93 21.78"/>
          <polygon class="cls-27" points="12.76 21.78 12.76 23.21 13.8 23.21 12.76 21.78"/>
          <polygon class="cls-34" points="14.84 21.78 12.76 21.78 13.8 23.2 14.84 21.78"/>
        </g>
      </g>
      <g>
        <polygon class="cls-3" points="12.38 6.34 13.19 4.72 14.9 3.88 22.89 9.23 12.38 6.34"/>
        <polygon class="cls-5" points="12.38 6.34 18.32 14.32 22.89 9.23 12.38 6.34"/>
        <polygon class="cls-18" points="12.38 6.34 18.32 14.32 8.06 13.03 12.38 6.34"/>
        <polygon class="cls-29" points="12.38 6.34 8.55 8.92 8.06 13.03 12.38 6.34"/>
        <polygon class="cls-32" points="6.88 11.77 8.55 8.92 8.06 13.03 6.88 11.77"/>
        <polygon class="cls-7" points="6.88 11.77 6.88 15.19 8.06 13.03 6.88 11.77"/>
        <polygon class="cls-14" points="8.43 16.7 18.32 14.32 8.06 13.03 8.43 16.7"/>
        <polygon class="cls-24" points="8.43 16.7 18.32 14.32 8.06 13.03 8.43 16.7"/>
        <polygon class="cls-33" points="8.43 16.7 18.32 14.32 9.75 19.07 8.43 16.7"/>
        <polygon class="cls-4" points="12.74 19.85 18.32 14.32 9.75 19.07 12.74 19.85"/>
        <polygon class="cls-12" points="12.74 19.85 18.32 14.32 18.32 19.85 12.74 19.85"/>
        <polygon class="cls-13" points="23.14 19.85 18.32 14.32 18.32 19.85 23.14 19.85"/>
        <polygon class="cls-26" points="8.43 16.7 6.88 15.19 8.06 13.03 8.43 16.7"/>
        <polygon class="cls-28" points="8.43 16.7 6.88 15.19 9.75 19.07 8.43 16.7"/>
        <polygon class="cls-31" points="18.6 3.88 14.9 3.88 22.89 9.23 18.6 3.88"/>
        <polygon class="cls-30" points="18.6 3.88 21.35 1.38 22.89 9.23 18.6 3.88"/>
        <polygon class="cls-10" points="28.57 6.1 21.35 1.38 22.89 9.23 28.57 6.1"/>
        <polygon class="cls-16" points="28.57 6.1 21.35 1.38 25.3 0 28.57 6.1"/>
        <polygon class="cls-17" points="28.57 6.1 28.57 .54 25.3 0 28.57 6.1"/>
        <polygon class="cls-25" points="28.57 6.1 28.57 .54 31.33 2.27 28.57 6.1"/>
        <polygon class="cls-15" points="28.57 6.1 33.37 4.84 31.33 2.27 28.57 6.1"/>
        <polygon class="cls-19" points="28.57 6.1 33.37 4.84 34.26 7.05 28.57 6.1"/>
        <polygon class="cls-20" points="28.57 6.1 28.57 11.75 22.89 9.23 28.57 6.1"/>
        <polygon class="cls-21" points="28.57 6.1 28.57 11.75 34.26 7.05 28.57 6.1"/>
        <polygon class="cls-23" points="36.71 8.37 28.57 11.75 34.26 7.05 36.71 8.37"/>
        <polygon class="cls-35" points="36.71 8.37 28.57 11.75 38.51 11.12 36.71 8.37"/>
        <polygon class="cls-36" points="38.75 14.32 28.57 11.75 38.51 11.12 38.75 14.32"/>
        <polygon class="cls-2" points="38.75 14.32 28.57 11.75 37.85 16.98 38.75 14.32"/>
        <polygon class="cls-8" points="35.46 19.07 28.57 11.75 37.85 16.98 35.46 19.07"/>
        <polygon class="cls-2" points="35.46 19.07 28.57 11.75 32.05 19.85 35.46 19.07"/>
        <polygon class="cls-11" points="27.81 19.85 28.57 11.75 32.05 19.85 27.81 19.85"/>
        <polygon class="cls-22" points="27.81 19.85 28.57 11.75 23.14 19.85 27.81 19.85"/>
        <polygon class="cls-9" points="18.32 14.32 28.57 11.75 22.89 9.23 18.32 14.32"/>
        <polygon class="cls-1" points="18.32 14.32 28.57 11.75 23.14 19.85 18.32 14.32"/>
      </g>
      <g>
        <g>
          <polygon class="cls-6" points="43.35 20.56 44.39 20.56 44.39 19.13 43.35 20.56"/>
          <polygon class="cls-27" points="43.35 20.56 42.31 19.14 41.27 20.56 43.35 20.56"/>
          <polygon class="cls-6" points="41.27 20.56 42.31 19.14 40.23 19.14 41.27 20.56"/>
          <polygon class="cls-34" points="44.39 19.14 42.31 19.14 43.35 20.56 44.39 19.14"/>
          <polygon class="cls-6" points="37.1 20.56 39.19 20.56 38.14 19.14 37.1 20.56"/>
          <polygon class="cls-27" points="38.14 19.14 39.19 20.56 40.23 19.14 38.14 19.14"/>
          <polygon class="cls-34" points="40.23 19.14 39.19 20.56 41.27 20.56 40.23 19.14"/>
          <polygon class="cls-27" points="37.1 20.56 36.06 19.14 35.02 20.56 37.1 20.56"/>
          <polygon class="cls-6" points="35.02 20.56 36.06 19.14 33.98 19.14 35.02 20.56"/>
          <polygon class="cls-34" points="38.14 19.14 36.06 19.14 37.1 20.56 38.14 19.14"/>
        </g>
        <g>
          <polygon class="cls-6" points="30.85 20.56 32.94 20.56 31.89 19.14 30.85 20.56"/>
          <polygon class="cls-27" points="31.89 19.14 32.94 20.56 33.98 19.14 31.89 19.14"/>
          <polygon class="cls-34" points="33.98 19.14 32.94 20.56 35.02 20.56 33.98 19.14"/>
          <polygon class="cls-27" points="30.85 20.56 29.81 19.14 28.77 20.56 30.85 20.56"/>
          <polygon class="cls-6" points="28.77 20.56 29.81 19.14 27.73 19.14 28.77 20.56"/>
          <polygon class="cls-34" points="31.89 19.14 29.81 19.14 30.85 20.56 31.89 19.14"/>
          <polygon class="cls-6" points="24.6 20.56 26.69 20.56 25.64 19.14 24.6 20.56"/>
          <polygon class="cls-27" points="25.64 19.14 26.69 20.56 27.73 19.14 25.64 19.14"/>
          <polygon class="cls-34" points="27.73 19.14 26.69 20.56 28.77 20.56 27.73 19.14"/>
          <polygon class="cls-27" points="23.56 19.13 23.56 20.56 24.6 20.56 23.56 19.13"/>
          <polygon class="cls-34" points="25.64 19.14 23.56 19.14 24.6 20.56 25.64 19.14"/>
        </g>
      </g>
      <g>
        <g>
          <polygon class="cls-6" points="22.56 20.56 23.61 20.56 23.61 19.13 22.56 20.56"/>
          <polygon class="cls-27" points="22.56 20.56 21.52 19.14 20.48 20.56 22.56 20.56"/>
          <polygon class="cls-6" points="20.48 20.56 21.52 19.14 19.44 19.14 20.48 20.56"/>
          <polygon class="cls-34" points="23.61 19.14 21.52 19.14 22.56 20.56 23.61 19.14"/>
          <polygon class="cls-6" points="16.31 20.56 18.4 20.56 17.36 19.14 16.31 20.56"/>
          <polygon class="cls-27" points="17.36 19.14 18.4 20.56 19.44 19.14 17.36 19.14"/>
          <polygon class="cls-34" points="19.44 19.14 18.4 20.56 20.48 20.56 19.44 19.14"/>
          <polygon class="cls-27" points="16.31 20.56 15.27 19.14 14.23 20.56 16.31 20.56"/>
          <polygon class="cls-6" points="14.23 20.56 15.27 19.14 13.19 19.14 14.23 20.56"/>
          <polygon class="cls-34" points="17.36 19.14 15.27 19.14 16.31 20.56 17.36 19.14"/>
        </g>
        <g>
          <polygon class="cls-6" points="10.07 20.56 12.15 20.56 11.11 19.14 10.07 20.56"/>
          <polygon class="cls-27" points="11.11 19.14 12.15 20.56 13.19 19.14 11.11 19.14"/>
          <polygon class="cls-34" points="13.19 19.14 12.15 20.56 14.23 20.56 13.19 19.14"/>
          <polygon class="cls-27" points="10.07 20.56 9.02 19.14 7.98 20.56 10.07 20.56"/>
          <polygon class="cls-6" points="7.98 20.56 9.02 19.14 6.94 19.14 7.98 20.56"/>
          <polygon class="cls-34" points="11.11 19.14 9.02 19.14 10.07 20.56 11.11 19.14"/>
          <polygon class="cls-6" points="3.82 20.56 5.9 20.56 4.86 19.14 3.82 20.56"/>
          <polygon class="cls-27" points="4.86 19.14 5.9 20.56 6.94 19.14 4.86 19.14"/>
          <polygon class="cls-34" points="6.94 19.14 5.9 20.56 7.98 20.56 6.94 19.14"/>
          <polygon class="cls-27" points="2.77 19.13 2.77 20.56 3.81 20.56 2.77 19.13"/>
          <polygon class="cls-34" points="4.86 19.14 2.77 19.14 3.82 20.56 4.86 19.14"/>
        </g>
      </g>
      <g>
        <g>
          <polygon class="cls-6" points="23.81 11.55 24.85 11.55 24.85 10.12 23.81 11.55"/>
          <polygon class="cls-27" points="23.81 11.55 22.77 10.12 21.73 11.55 23.81 11.55"/>
          <polygon class="cls-6" points="21.73 11.55 22.77 10.12 20.68 10.12 21.73 11.55"/>
          <polygon class="cls-34" points="24.85 10.12 22.77 10.12 23.81 11.55 24.85 10.12"/>
          <polygon class="cls-6" points="17.56 11.55 19.64 11.55 18.6 10.12 17.56 11.55"/>
          <polygon class="cls-27" points="18.6 10.12 19.64 11.55 20.68 10.12 18.6 10.12"/>
          <polygon class="cls-34" points="20.68 10.12 19.64 11.55 21.73 11.55 20.68 10.12"/>
          <polygon class="cls-27" points="17.56 11.55 16.52 10.12 15.48 11.55 17.56 11.55"/>
          <polygon class="cls-6" points="15.48 11.55 16.52 10.12 14.43 10.12 15.48 11.55"/>
          <polygon class="cls-34" points="18.6 10.12 16.52 10.12 17.56 11.55 18.6 10.12"/>
        </g>
        <g>
          <polygon class="cls-6" points="11.31 11.55 13.39 11.55 12.35 10.12 11.31 11.55"/>
          <polygon class="cls-27" points="12.35 10.12 13.39 11.55 14.43 10.12 12.35 10.12"/>
          <polygon class="cls-34" points="14.43 10.12 13.39 11.55 15.48 11.55 14.43 10.12"/>
          <polygon class="cls-27" points="11.31 11.55 10.27 10.12 9.23 11.55 11.31 11.55"/>
          <polygon class="cls-6" points="9.23 11.55 10.27 10.12 8.18 10.12 9.23 11.55"/>
          <polygon class="cls-34" points="12.35 10.12 10.27 10.12 11.31 11.55 12.35 10.12"/>
          <polygon class="cls-6" points="5.06 11.55 7.14 11.55 6.1 10.12 5.06 11.55"/>
          <polygon class="cls-27" points="6.1 10.12 7.14 11.55 8.18 10.12 6.1 10.12"/>
          <polygon class="cls-34" points="8.18 10.12 7.14 11.55 9.23 11.55 8.18 10.12"/>
          <polygon class="cls-27" points="4.02 10.12 4.02 11.55 5.06 11.55 4.02 10.12"/>
          <polygon class="cls-34" points="6.1 10.12 4.02 10.12 5.06 11.55 6.1 10.12"/>
        </g>
      </g>
      <g>
        <g>
          <polygon class="cls-6" points="19.79 14.57 20.83 14.57 20.83 13.14 19.79 14.57"/>
          <polygon class="cls-27" points="19.79 14.57 18.75 13.14 17.71 14.57 19.79 14.57"/>
          <polygon class="cls-6" points="17.71 14.57 18.75 13.14 16.66 13.14 17.71 14.57"/>
          <polygon class="cls-34" points="20.83 13.14 18.75 13.14 19.79 14.57 20.83 13.14"/>
          <polygon class="cls-6" points="13.54 14.57 15.62 14.57 14.58 13.14 13.54 14.57"/>
          <polygon class="cls-27" points="14.58 13.14 15.62 14.57 16.66 13.14 14.58 13.14"/>
          <polygon class="cls-34" points="16.66 13.14 15.62 14.57 17.71 14.57 16.66 13.14"/>
          <polygon class="cls-27" points="13.54 14.57 12.5 13.14 11.46 14.57 13.54 14.57"/>
          <polygon class="cls-6" points="11.46 14.57 12.5 13.14 10.42 13.14 11.46 14.57"/>
          <polygon class="cls-34" points="14.58 13.14 12.5 13.14 13.54 14.57 14.58 13.14"/>
        </g>
        <g>
          <polygon class="cls-6" points="7.29 14.57 9.37 14.57 8.33 13.14 7.29 14.57"/>
          <polygon class="cls-27" points="8.33 13.14 9.37 14.57 10.42 13.14 8.33 13.14"/>
          <polygon class="cls-34" points="10.42 13.14 9.37 14.57 11.46 14.57 10.42 13.14"/>
          <polygon class="cls-27" points="7.29 14.57 6.25 13.14 5.21 14.57 7.29 14.57"/>
          <polygon class="cls-6" points="5.21 14.57 6.25 13.14 4.17 13.14 5.21 14.57"/>
          <polygon class="cls-34" points="8.33 13.14 6.25 13.14 7.29 14.57 8.33 13.14"/>
          <polygon class="cls-6" points="1.04 14.57 3.12 14.57 2.08 13.14 1.04 14.57"/>
          <polygon class="cls-27" points="2.08 13.14 3.12 14.57 4.17 13.14 2.08 13.14"/>
          <polygon class="cls-34" points="4.17 13.14 3.12 14.57 5.21 14.57 4.17 13.14"/>
          <polygon class="cls-27" points="0 13.14 0 14.57 1.04 14.57 0 13.14"/>
          <polygon class="cls-34" points="2.08 13.14 0 13.14 1.04 14.57 2.08 13.14"/>
        </g>
      </g>
      <g>
        <g>
          <polygon class="cls-6" points="25.26 17.64 26.3 17.64 26.3 16.21 25.26 17.64"/>
          <polygon class="cls-27" points="25.26 17.64 24.22 16.21 23.18 17.64 25.26 17.64"/>
          <polygon class="cls-6" points="23.18 17.64 24.22 16.21 22.14 16.21 23.18 17.64"/>
          <polygon class="cls-34" points="26.3 16.21 24.22 16.21 25.26 17.64 26.3 16.21"/>
          <polygon class="cls-6" points="19.01 17.64 21.09 17.64 20.05 16.21 19.01 17.64"/>
          <polygon class="cls-27" points="20.05 16.21 21.09 17.64 22.14 16.21 20.05 16.21"/>
          <polygon class="cls-34" points="22.14 16.21 21.09 17.64 23.18 17.64 22.14 16.21"/>
          <polygon class="cls-27" points="19.01 17.64 17.97 16.21 16.93 17.64 19.01 17.64"/>
          <polygon class="cls-6" points="16.93 17.64 17.97 16.21 15.89 16.21 16.93 17.64"/>
          <polygon class="cls-34" points="20.05 16.21 17.97 16.21 19.01 17.64 20.05 16.21"/>
        </g>
        <g>
          <polygon class="cls-6" points="12.76 17.64 14.84 17.64 13.8 16.21 12.76 17.64"/>
          <polygon class="cls-27" points="13.8 16.21 14.84 17.64 15.89 16.21 13.8 16.21"/>
          <polygon class="cls-34" points="15.89 16.21 14.84 17.64 16.93 17.64 15.89 16.21"/>
          <polygon class="cls-27" points="12.76 17.64 11.72 16.21 10.68 17.64 12.76 17.64"/>
          <polygon class="cls-6" points="10.68 17.64 11.72 16.21 9.64 16.21 10.68 17.64"/>
          <polygon class="cls-34" points="13.8 16.21 11.72 16.21 12.76 17.64 13.8 16.21"/>
          <polygon class="cls-6" points="6.51 17.64 8.6 17.64 7.55 16.21 6.51 17.64"/>
          <polygon class="cls-27" points="7.55 16.21 8.6 17.64 9.64 16.21 7.55 16.21"/>
          <polygon class="cls-34" points="9.64 16.21 8.6 17.64 10.68 17.64 9.64 16.21"/>
          <polygon class="cls-27" points="5.47 16.21 5.47 17.64 6.51 17.64 5.47 16.21"/>
          <polygon class="cls-34" points="7.55 16.21 5.47 16.21 6.51 17.64 7.55 16.21"/>
        </g>
      </g>
    </g>
  </g>
</svg>