<?xml version="1.0" encoding="UTF-8"?>
<svg id="Layer_2" xmlns="http://www.w3.org/2000/svg" viewBox="0 0 36.89 33">
  <defs>
    <style>
      .cls-1 {
        fill: #0539b3;
      }

      .cls-2 {
        fill: #032f87;
      }

      .cls-3 {
        fill: #91f0ff;
      }

      .cls-4 {
        fill: #4165a3;
      }

      .cls-5 {
        fill: #0ba5f4;
      }

      .cls-6 {
        fill: #6bb6ef;
      }

      .cls-7 {
        fill: #02237d;
      }

      .cls-8 {
        fill: #ff8629;
      }

      .cls-9 {
        fill: #0876dd;
      }

      .cls-10 {
        fill: #ff9b43;
      }

      .cls-11 {
        fill: #4bd4f7;
      }

      .cls-12 {
        fill: #03408d;
      }

      .cls-13 {
        fill: #175ab2;
      }

      .cls-14 {
        fill: #0951b2;
      }

      .cls-15 {
        fill: #2145a2;
      }

      .cls-16 {
        fill: #42a3e6;
      }

      .cls-17 {
        fill: #70e1fd;
      }

      .cls-18 {
        fill: #69cafb;
      }

      .cls-19 {
        fill: #29bbf1;
      }

      .cls-20 {
        fill: #f78851;
      }

      .cls-21 {
        fill: #1f73ca;
      }

      .cls-22 {
        fill: #0da4f4;
      }

      .cls-23 {
        fill: #fa960a;
      }

      .cls-24 {
        fill: #0b8eed;
      }

      .cls-25 {
        fill: #022e90;
      }

      .cls-26 {
        fill: #0b68d4;
      }

      .cls-27 {
        fill: #e55f06;
      }

      .cls-28 {
        fill: #ffce29;
      }

      .cls-29 {
        fill: #fe6c05;
      }

      .cls-30 {
        fill: #4170ce;
      }

      .cls-31 {
        fill: #ffa31e;
      }

      .cls-32 {
        fill: #54a9ef;
      }

      .cls-33 {
        fill: #6191d6;
      }

      .cls-34 {
        fill: #6076df;
      }

      .cls-35 {
        fill: #68f3fb;
      }

      .cls-36 {
        fill: #7ce1f2;
      }

      .cls-37 {
        fill: #85e8fb;
      }

      .cls-38 {
        fill: #84cde0;
      }

      .cls-39 {
        fill: #5380c9;
      }

      .cls-40 {
        fill: #0863b4;
      }

      .cls-41 {
        fill: #042d9f;
      }
    </style>
  </defs>
  <g id="Layer_1-2" data-name="Layer_1">
    <g>
      <g>
        <polygon class="cls-28" points="7.52 0 11.08 1.5 8.54 2.11 7.52 0"/>
        <polygon class="cls-10" points="13.4 3.55 11.08 1.5 8.54 2.11 13.4 3.55"/>
        <polygon class="cls-28" points="13.4 3.55 14.08 6.09 8.54 2.11 13.4 3.55"/>
        <polygon class="cls-10" points="9.49 4.22 14.08 6.09 8.54 2.11 9.49 4.22"/>
        <polygon class="cls-20" points="9.49 4.22 14.08 6.09 9.05 6.69 9.49 4.22"/>
        <polygon class="cls-10" points="14.34 9.36 14.08 6.09 9.05 6.69 14.34 9.36"/>
        <polygon class="cls-27" points="14.34 9.36 13.25 11.68 9.05 6.69 14.34 9.36"/>
        <polygon class="cls-29" points="8.5 8.91 13.25 11.68 9.05 6.69 8.5 8.91"/>
        <polygon class="cls-8" points="8.5 8.91 13.25 11.68 11.77 13.75 8.5 8.91"/>
        <polygon class="cls-31" points="8.5 8.91 9.67 15.17 11.77 13.75 8.5 8.91"/>
        <polygon class="cls-23" points="8.5 8.91 9.67 15.17 6.71 10.79 8.5 8.91"/>
        <polygon class="cls-20" points="8.05 15.72 9.67 15.17 6.71 10.79 8.05 15.72"/>
        <polygon class="cls-8" points="8.05 15.72 5.14 11.94 6.71 10.79 8.05 15.72"/>
        <polygon class="cls-29" points="8.05 15.72 5.14 11.94 6.17 15.92 8.05 15.72"/>
        <polygon class="cls-27" points="3.72 12.8 5.14 11.94 6.17 15.92 3.72 12.8"/>
        <polygon class="cls-29" points="3.72 12.8 4.52 15.72 6.17 15.92 3.72 12.8"/>
        <polygon class="cls-10" points="3.72 12.8 4.52 15.72 2.41 12.87 3.72 12.8"/>
        <polygon class="cls-27" points="2.52 14.98 4.52 15.72 2.41 12.87 2.52 14.98"/>
        <polygon class="cls-27" points="2.52 14.98 1.14 14.17 2.41 12.87 2.52 14.98"/>
        <polygon class="cls-29" points="0 12.87 1.14 14.17 2.41 12.87 0 12.87"/>
      </g>
      <g>
        <polygon class="cls-3" points="10.53 10.11 11.34 8.5 13.04 7.65 21.04 13 10.53 10.11"/>
        <polygon class="cls-5" points="10.53 10.11 16.46 18.09 21.04 13 10.53 10.11"/>
        <polygon class="cls-19" points="10.53 10.11 16.46 18.09 6.21 16.81 10.53 10.11"/>
        <polygon class="cls-35" points="10.53 10.11 6.7 12.7 6.21 16.81 10.53 10.11"/>
        <polygon class="cls-38" points="5.03 15.55 6.7 12.7 6.21 16.81 5.03 15.55"/>
        <polygon class="cls-6" points="5.03 15.55 5.03 18.96 6.21 16.81 5.03 15.55"/>
        <polygon class="cls-15" points="6.58 20.47 16.46 18.09 6.21 16.81 6.58 20.47"/>
        <polygon class="cls-30" points="6.58 20.47 16.46 18.09 6.21 16.81 6.58 20.47"/>
        <polygon class="cls-39" points="6.58 20.47 16.46 18.09 7.89 22.85 6.58 20.47"/>
        <polygon class="cls-4" points="10.88 23.62 16.46 18.09 7.89 22.85 10.88 23.62"/>
        <polygon class="cls-13" points="10.88 23.62 16.46 18.09 16.46 23.62 10.88 23.62"/>
        <polygon class="cls-14" points="21.29 23.62 16.46 18.09 16.46 23.62 21.29 23.62"/>
        <polygon class="cls-33" points="6.58 20.47 5.03 18.96 6.21 16.81 6.58 20.47"/>
        <polygon class="cls-34" points="6.58 20.47 5.03 18.96 7.89 22.85 6.58 20.47"/>
        <polygon class="cls-37" points="16.74 7.65 13.04 7.65 21.04 13 16.74 7.65"/>
        <polygon class="cls-36" points="16.74 7.65 19.49 5.15 21.04 13 16.74 7.65"/>
        <polygon class="cls-11" points="26.71 9.87 19.49 5.15 21.04 13 26.71 9.87"/>
        <polygon class="cls-17" points="26.71 9.87 19.49 5.15 23.44 3.77 26.71 9.87"/>
        <polygon class="cls-18" points="26.71 9.87 26.71 4.31 23.44 3.77 26.71 9.87"/>
        <polygon class="cls-32" points="26.71 9.87 26.71 4.31 29.48 6.05 26.71 9.87"/>
        <polygon class="cls-16" points="26.71 9.87 31.51 8.62 29.48 6.05 26.71 9.87"/>
        <polygon class="cls-21" points="26.71 9.87 31.51 8.62 32.41 10.83 26.71 9.87"/>
        <polygon class="cls-22" points="26.71 9.87 26.71 15.53 21.04 13 26.71 9.87"/>
        <polygon class="cls-24" points="26.71 9.87 26.71 15.53 32.41 10.83 26.71 9.87"/>
        <polygon class="cls-26" points="34.86 12.14 26.71 15.53 32.41 10.83 34.86 12.14"/>
        <polygon class="cls-40" points="34.86 12.14 26.71 15.53 36.65 14.89 34.86 12.14"/>
        <polygon class="cls-41" points="36.89 18.09 26.71 15.53 36.65 14.89 36.89 18.09"/>
        <polygon class="cls-2" points="36.89 18.09 26.71 15.53 36 20.75 36.89 18.09"/>
        <polygon class="cls-7" points="33.6 22.85 26.71 15.53 36 20.75 33.6 22.85"/>
        <polygon class="cls-2" points="33.6 22.85 26.71 15.53 30.2 23.62 33.6 22.85"/>
        <polygon class="cls-12" points="25.95 23.62 26.71 15.53 30.2 23.62 25.95 23.62"/>
        <polygon class="cls-25" points="25.95 23.62 26.71 15.53 21.29 23.62 25.95 23.62"/>
        <polygon class="cls-9" points="16.46 18.09 26.71 15.53 21.04 13 16.46 18.09"/>
        <polygon class="cls-1" points="16.46 18.09 26.71 15.53 21.29 23.62 16.46 18.09"/>
      </g>
      <g>
        <g>
          <polygon class="cls-16" points="22.83 28.19 22.25 27.66 22.05 27.78 22.17 28.58 22.83 28.19"/>
          <polygon class="cls-19" points="24.11 25.5 23.38 25.31 23.02 26.66 23.9 26.28 24.11 25.5"/>
          <polygon class="cls-3" points="25.23 28.51 25.42 27.78 24.88 27.63 24.62 28.34 25.23 28.51"/>
          <polygon class="cls-11" points="23.22 27.97 23.54 28.05 24.01 26.64 23.77 26.78 23.9 26.28 23.02 26.66 22.84 27.32 22.25 27.66 22.83 28.19 23.22 27.97"/>
          <polygon class="cls-19" points="24.62 28.34 24.88 27.63 24.14 27.44 24.89 27 24.52 26.35 24.01 26.64 23.54 28.05 24.62 28.34"/>
          <polygon class="cls-22" points="22.17 28.58 22.05 27.78 20.95 28.41 21.57 28.92 22.17 28.58"/>
          <path class="cls-24" d="M17.12,29.12c.05.28.09.59.13.81l.45.12,1.21-.46-1.78-.48Z"/>
          <path class="cls-2" d="M16.89,29.06l-.2.73.55.15c-.03-.23-.08-.53-.13-.81l-.22-.06Z"/>
          <path class="cls-22" d="M17.69,30.05l.29.08-.21.12,1.46.15.04-.15.53-.31c.02-.26.06-.59.09-.92l-1,.58-1.21.46Z"/>
          <path class="cls-13" d="M21.57,28.92l-.62-.51-1.04.6c-.03.33-.07.67-.09.92l1.76-1.01Z"/>
          <polygon class="cls-19" points="18.01 32.06 18.73 32.25 18.35 30.78 18.01 32.06"/>
          <polygon class="cls-9" points="17.17 30.59 17.55 31.24 18.35 30.78 19.16 30.7 19.24 30.4 17.77 30.24 17.17 30.59"/>
          <polygon class="cls-37" points="18.73 32.25 18.74 32.25 19.16 30.7 18.35 30.78 18.73 32.25"/>
        </g>
        <g>
          <polygon class="cls-16" points="20.72 30.55 21.47 30.31 21.47 30.08 20.72 29.78 20.72 30.55"/>
          <polygon class="cls-19" points="22.41 33 22.95 32.47 21.96 31.48 21.85 32.43 22.41 33"/>
          <polygon class="cls-3" points="19.25 32.47 19.79 33 20.18 32.6 19.7 32.02 19.25 32.47"/>
          <polygon class="cls-11" points="20.72 31 20.49 31.23 21.47 32.35 21.47 32.06 21.85 32.43 21.96 31.48 21.47 31 21.47 30.31 20.72 30.55 20.72 31"/>
          <polygon class="cls-19" points="19.7 32.02 20.18 32.6 20.72 32.06 20.72 32.93 21.47 32.93 21.47 32.35 20.49 31.23 19.7 32.02"/>
          <polygon class="cls-22" points="20.72 29.78 21.47 30.08 21.47 28.81 20.72 29.09 20.72 29.78"/>
          <path class="cls-24" d="M22.78,25.14c-.27-.1-.56-.21-.77-.3l-.33.33-.21,1.28,1.31-1.31Z"/>
          <path class="cls-2" d="M22.95,24.97l-.53-.53-.4.4c.21.09.5.2.77.3l.16-.16Z"/>
          <path class="cls-22" d="M21.69,25.17l-.21.21v-.24l-.86,1.19.11.11v.62c.21.15.48.34.75.54v-1.16l.21-1.28Z"/>
          <path class="cls-13" d="M20.72,29.09l.75-.28v-1.21c-.27-.2-.54-.39-.75-.54v2.03Z"/>
          <polygon class="cls-19" points="19.79 24.44 19.26 24.97 20.72 25.38 19.79 24.44"/>
          <polygon class="cls-9" points="21.47 24.45 20.72 24.45 20.72 25.38 20.39 26.11 20.61 26.33 21.47 25.14 21.47 24.45"/>
          <polygon class="cls-37" points="19.26 24.97 19.25 24.97 20.39 26.11 20.72 25.38 19.26 24.97"/>
        </g>
        <g>
          <polygon class="cls-16" points="22.46 29.98 22.63 29.21 22.43 29.09 21.79 29.59 22.46 29.98"/>
          <polygon class="cls-19" points="25.42 29.74 25.23 29.01 23.88 29.38 24.65 29.95 25.42 29.74"/>
          <polygon class="cls-3" points="23.38 32.21 24.11 32.02 23.97 31.48 23.22 31.6 23.38 32.21"/>
          <polygon class="cls-11" points="22.84 30.2 22.93 30.53 24.39 30.23 24.14 30.08 24.65 29.95 23.88 29.38 23.22 29.55 22.63 29.21 22.46 29.98 22.84 30.2"/>
          <polygon class="cls-19" points="23.22 31.6 23.97 31.48 23.77 30.74 24.52 31.17 24.89 30.52 24.39 30.23 22.93 30.53 23.22 31.6"/>
          <polygon class="cls-22" points="21.79 29.59 22.43 29.09 21.33 28.46 21.19 29.25 21.79 29.59"/>
          <path class="cls-24" d="M18.8,25.49c-.22.18-.46.38-.64.52l.12.45,1,.82-.48-1.78Z"/>
          <path class="cls-2" d="M18.74,25.27l-.73.19.15.55c.18-.14.42-.34.64-.52l-.06-.22Z"/>
          <path class="cls-22" d="M18.28,26.45l.08.29-.21-.12.6,1.34.15-.04.53.31c.23-.11.54-.25.85-.38l-1-.58-1-.82Z"/>
          <path class="cls-13" d="M21.19,29.25l.13-.79-1.05-.6c-.31.14-.61.28-.85.38l1.76,1.01Z"/>
          <polygon class="cls-19" points="16.7 27.74 16.89 28.46 17.98 27.39 16.7 27.74"/>
          <polygon class="cls-9" points="17.55 26.28 17.18 26.93 17.98 27.39 18.45 28.05 18.75 27.97 18.15 26.62 17.55 26.28"/>
          <polygon class="cls-37" points="16.89 28.46 16.89 28.46 18.45 28.05 17.98 27.39 16.89 28.46"/>
        </g>
      </g>
    </g>
  </g>
</svg>