<?xml version="1.0" encoding="UTF-8"?>
<svg id="Layer_2" xmlns="http://www.w3.org/2000/svg" viewBox="0 0 19.58 28.84">
  <defs>
    <style>
      .cls-1 {
        fill: #ff8629;
      }

      .cls-2 {
        fill: #ff9b43;
      }

      .cls-3 {
        fill: #f78851;
      }

      .cls-4 {
        fill: #ffe985;
      }

      .cls-5 {
        fill: #fa960a;
      }

      .cls-6 {
        fill: #e55f06;
      }

      .cls-7 {
        fill: #ffce29;
      }

      .cls-8 {
        fill: #fe6c05;
      }

      .cls-9 {
        fill: #ffa31e;
      }

      .cls-10 {
        fill: #ffe91f;
      }
    </style>
  </defs>
  <g id="Layer_1-2" data-name="Layer_1">
    <g>
      <polygon class="cls-10" points="0 .91 6.91 0 3.51 3.27 0 .91"/>
      <polygon class="cls-4" points="12.41 1.09 6.91 0 3.51 3.27 12.41 1.09"/>
      <polygon class="cls-7" points="12.41 1.09 15.78 4.42 3.51 3.27 12.41 1.09"/>
      <polygon class="cls-2" points="6.91 5.71 15.78 4.42 3.51 3.27 6.91 5.71"/>
      <polygon class="cls-3" points="6.91 5.71 15.78 4.42 8.48 9.95 6.91 5.71"/>
      <polygon class="cls-2" points="19.16 9.29 15.78 4.42 8.48 9.95 19.16 9.29"/>
      <polygon class="cls-6" points="19.16 9.29 19.58 13.91 8.48 9.95 19.16 9.29"/>
      <polygon class="cls-8" points="9.64 13.91 19.58 13.91 8.48 9.95 9.64 13.91"/>
      <polygon class="cls-1" points="9.64 13.91 19.58 13.91 19.16 18.48 9.64 13.91"/>
      <polygon class="cls-9" points="9.64 13.91 17.18 22.61 19.16 18.48 9.64 13.91"/>
      <polygon class="cls-5" points="9.64 13.91 17.18 22.61 8.58 18.48 9.64 13.91"/>
      <polygon class="cls-3" points="15.16 24.95 17.18 22.61 8.58 18.48 15.16 24.95"/>
      <polygon class="cls-1" points="15.16 24.95 7.17 21.71 8.58 18.48 15.16 24.95"/>
      <polygon class="cls-8" points="15.16 24.95 7.17 21.71 12.41 26.97 15.16 24.95"/>
      <polygon class="cls-6" points="5.73 24.34 7.17 21.71 12.41 26.97 5.73 24.34"/>
      <polygon class="cls-8" points="5.73 24.34 9.64 28.17 12.41 26.97 5.73 24.34"/>
      <polygon class="cls-2" points="5.73 24.34 9.64 28.17 3.76 25.65 5.73 24.34"/>
      <polygon class="cls-6" points="5.86 28.84 9.64 28.17 3.76 25.65 5.86 28.84"/>
      <polygon class="cls-6" points="5.86 28.84 2.96 28.84 3.76 25.65 5.86 28.84"/>
      <polygon class="cls-8" points="0 27.84 2.96 28.84 3.76 25.65 0 27.84"/>
    </g>
  </g>
</svg>