<?xml version="1.0" encoding="UTF-8"?>
<svg id="Layer_2" xmlns="http://www.w3.org/2000/svg" viewBox="0 0 37.74 40.42">
  <defs>
    <style>
      .cls-1 {
        fill: #0539b3;
      }

      .cls-2 {
        fill: #032f87;
      }

      .cls-3 {
        fill: #91f0ff;
      }

      .cls-4 {
        fill: #4165a3;
      }

      .cls-5 {
        fill: #0ba5f4;
      }

      .cls-6 {
        fill: #6bb6ef;
      }

      .cls-7 {
        fill: #02237d;
      }

      .cls-8 {
        fill: #fffe85;
      }

      .cls-9 {
        fill: #ff8629;
      }

      .cls-10 {
        fill: #0876dd;
      }

      .cls-11 {
        fill: #ff9b43;
      }

      .cls-12 {
        fill: #ffe41f;
      }

      .cls-13 {
        fill: #4bd4f7;
      }

      .cls-14 {
        fill: #03408d;
      }

      .cls-15 {
        fill: #175ab2;
      }

      .cls-16 {
        fill: #0951b2;
      }

      .cls-17 {
        fill: #2145a2;
      }

      .cls-18 {
        fill: #42a3e6;
      }

      .cls-19 {
        fill: #fff51f;
      }

      .cls-20 {
        fill: #70e1fd;
      }

      .cls-21 {
        fill: #69cafb;
      }

      .cls-22 {
        fill: #29bbf1;
      }

      .cls-23 {
        fill: #f78851;
      }

      .cls-24 {
        fill: #1f73ca;
      }

      .cls-25 {
        fill: #0da4f4;
      }

      .cls-26 {
        fill: #0b8eed;
      }

      .cls-27 {
        fill: #022e90;
      }

      .cls-28 {
        fill: #0b68d4;
      }

      .cls-29 {
        fill: #e55f06;
      }

      .cls-30 {
        fill: #ffce29;
      }

      .cls-31 {
        fill: #fe6c05;
      }

      .cls-32 {
        fill: #4170ce;
      }

      .cls-33 {
        fill: #ffa31e;
      }

      .cls-34 {
        fill: #54a9ef;
      }

      .cls-35 {
        fill: #6191d6;
      }

      .cls-36 {
        fill: #6076df;
      }

      .cls-37 {
        fill: #68f3fb;
      }

      .cls-38 {
        fill: #ff750a;
      }

      .cls-39 {
        fill: #7ce1f2;
      }

      .cls-40 {
        fill: #85e8fb;
      }

      .cls-41 {
        fill: #84cde0;
      }

      .cls-42 {
        fill: #5380c9;
      }

      .cls-43 {
        fill: #ed6902;
      }

      .cls-44 {
        fill: #0863b4;
      }

      .cls-45 {
        fill: #042d9f;
      }
    </style>
  </defs>
  <g id="Layer_1-2" data-name="Layer_1">
    <g>
      <g>
        <polygon class="cls-38" points="27.74 11.06 25.49 17.14 27.74 17.14 27.74 11.06"/>
        <polygon class="cls-19" points="27.74 2.97 25.49 2.97 27.74 9.05 27.74 2.97"/>
        <polygon class="cls-8" points="27.74 9.05 25.49 2.97 25.44 2.97 21.76 5.65 27.74 9.8 27.74 9.05"/>
        <polygon class="cls-12" points="27.74 9.8 21.76 5.65 21.72 5.68 20.3 10.06 27.74 10.06 27.74 9.8"/>
        <polygon class="cls-9" points="27.74 10.31 21.71 14.42 21.72 14.43 25.44 17.14 25.49 17.14 27.74 11.06 27.74 10.31"/>
        <polygon class="cls-33" points="27.74 10.06 20.3 10.06 21.71 14.42 27.74 10.31 27.74 10.06"/>
        <polygon class="cls-43" points="27.74 11.06 29.99 17.14 27.74 17.14 27.74 11.06"/>
        <polygon class="cls-30" points="27.74 2.97 29.99 2.97 27.74 9.05 27.74 2.97"/>
        <polygon class="cls-11" points="27.74 9.05 29.99 2.97 30.04 2.97 33.72 5.65 27.74 9.8 27.74 9.05"/>
        <polygon class="cls-23" points="27.74 9.8 33.72 5.65 33.77 5.68 35.19 10.06 27.74 10.06 27.74 9.8"/>
        <polygon class="cls-31" points="27.74 10.31 33.77 14.42 33.77 14.43 30.04 17.14 29.99 17.14 27.74 11.06 27.74 10.31"/>
        <polygon class="cls-29" points="27.74 10.06 35.19 10.06 33.77 14.42 27.74 10.31 27.74 10.06"/>
        <g>
          <polygon class="cls-11" points="27.74 0 27.74 0 27.74 2.22 30 2.22 27.74 0"/>
          <polygon class="cls-30" points="25.49 2.22 27.74 2.22 27.74 0 25.49 2.22"/>
        </g>
        <g>
          <polygon class="cls-11" points="22.27 1.62 22.27 1.62 23.47 3.48 25.36 2.25 22.27 1.62"/>
          <polygon class="cls-30" points="21.58 4.71 23.47 3.48 22.27 1.62 21.58 4.71"/>
        </g>
        <g>
          <polygon class="cls-11" points="18.56 5.96 18.56 5.96 20.58 6.87 21.5 4.81 18.56 5.96"/>
          <polygon class="cls-30" points="19.66 8.93 20.58 6.87 18.56 5.96 19.66 8.93"/>
        </g>
        <g>
          <polygon class="cls-11" points="17.81 11.63 17.81 11.63 20 11.28 19.65 9.05 17.81 11.63"/>
          <polygon class="cls-30" points="20.35 13.51 20 11.28 17.81 11.63 20.35 13.51"/>
        </g>
        <g>
          <polygon class="cls-11" points="20.27 16.78 20.27 16.78 21.92 15.3 20.41 13.62 20.27 16.78"/>
          <polygon class="cls-30" points="23.42 16.98 21.92 15.3 20.27 16.78 23.42 16.98"/>
        </g>
        <g>
          <polygon class="cls-11" points="25.14 19.77 25.14 19.77 25.71 17.63 23.54 17.04 25.14 19.77"/>
          <polygon class="cls-30" points="27.89 18.21 25.71 17.63 25.14 19.77 27.89 18.21"/>
        </g>
        <g>
          <polygon class="cls-11" points="30.85 19.62 30.85 19.62 30.17 17.51 28.02 18.21 30.85 19.62"/>
          <polygon class="cls-30" points="32.31 16.81 30.17 17.51 30.85 19.62 32.31 16.81"/>
        </g>
        <g>
          <polygon class="cls-11" points="35.56 16.38 35.56 16.38 33.83 14.99 32.42 16.74 35.56 16.38"/>
          <polygon class="cls-30" points="35.25 13.24 33.83 14.99 35.56 16.38 35.25 13.24"/>
        </g>
        <g>
          <polygon class="cls-11" points="37.74 11.11 37.74 11.11 35.54 10.88 35.3 13.12 37.74 11.11"/>
          <polygon class="cls-30" points="35.77 8.63 35.54 10.88 37.74 11.11 35.77 8.63"/>
        </g>
        <g>
          <polygon class="cls-11" points="36.7 5.49 36.7 5.49 34.73 6.5 35.75 8.5 36.7 5.49"/>
          <polygon class="cls-30" points="33.7 4.49 34.73 6.5 36.7 5.49 33.7 4.49"/>
        </g>
        <g>
          <polygon class="cls-11" points="32.77 1.35 32.77 1.35 31.66 3.27 33.62 4.39 32.77 1.35"/>
          <polygon class="cls-30" points="29.71 2.14 31.66 3.27 32.77 1.35 29.71 2.14"/>
        </g>
      </g>
      <g>
        <polygon class="cls-3" points="5.92 11.49 6.79 9.75 8.62 8.85 17.22 14.6 5.92 11.49"/>
        <polygon class="cls-5" points="5.92 11.49 12.3 20.07 17.22 14.6 5.92 11.49"/>
        <polygon class="cls-22" points="5.92 11.49 12.3 20.07 1.28 18.69 5.92 11.49"/>
        <polygon class="cls-37" points="5.92 11.49 1.8 14.27 1.28 18.69 5.92 11.49"/>
        <polygon class="cls-41" points="0 17.34 1.8 14.27 1.28 18.69 0 17.34"/>
        <polygon class="cls-6" points="0 17.34 0 21.01 1.28 18.69 0 17.34"/>
        <polygon class="cls-17" points="1.67 22.63 12.3 20.07 1.28 18.69 1.67 22.63"/>
        <polygon class="cls-32" points="1.67 22.63 12.3 20.07 1.28 18.69 1.67 22.63"/>
        <polygon class="cls-42" points="1.67 22.63 12.3 20.07 3.09 25.19 1.67 22.63"/>
        <polygon class="cls-4" points="6.3 26.02 12.3 20.07 3.09 25.19 6.3 26.02"/>
        <polygon class="cls-15" points="6.3 26.02 12.3 20.07 12.3 26.02 6.3 26.02"/>
        <polygon class="cls-16" points="17.49 26.02 12.3 20.07 12.3 26.02 17.49 26.02"/>
        <polygon class="cls-35" points="1.67 22.63 0 21.01 1.28 18.69 1.67 22.63"/>
        <polygon class="cls-36" points="1.67 22.63 0 21.01 3.09 25.19 1.67 22.63"/>
        <polygon class="cls-40" points="12.6 8.85 8.62 8.85 17.22 14.6 12.6 8.85"/>
        <polygon class="cls-39" points="12.6 8.85 15.56 6.15 17.22 14.6 12.6 8.85"/>
        <polygon class="cls-13" points="23.33 11.23 15.56 6.15 17.22 14.6 23.33 11.23"/>
        <polygon class="cls-20" points="23.33 11.23 15.56 6.15 19.81 4.67 23.33 11.23"/>
        <polygon class="cls-21" points="23.33 11.23 23.33 5.25 19.81 4.67 23.33 11.23"/>
        <polygon class="cls-34" points="23.33 11.23 23.33 5.25 26.3 7.12 23.33 11.23"/>
        <polygon class="cls-18" points="23.33 11.23 28.49 9.88 26.3 7.12 23.33 11.23"/>
        <polygon class="cls-24" points="23.33 11.23 28.49 9.88 29.45 12.26 23.33 11.23"/>
        <polygon class="cls-25" points="23.33 11.23 23.33 17.31 17.22 14.6 23.33 11.23"/>
        <polygon class="cls-26" points="23.33 11.23 23.33 17.31 29.45 12.26 23.33 11.23"/>
        <polygon class="cls-28" points="32.09 13.68 23.33 17.31 29.45 12.26 32.09 13.68"/>
        <polygon class="cls-44" points="32.09 13.68 23.33 17.31 34.02 16.63 32.09 13.68"/>
        <polygon class="cls-45" points="34.27 20.07 23.33 17.31 34.02 16.63 34.27 20.07"/>
        <polygon class="cls-2" points="34.27 20.07 23.33 17.31 33.31 22.94 34.27 20.07"/>
        <polygon class="cls-7" points="30.74 25.19 23.33 17.31 33.31 22.94 30.74 25.19"/>
        <polygon class="cls-2" points="30.74 25.19 23.33 17.31 27.07 26.02 30.74 25.19"/>
        <polygon class="cls-14" points="22.51 26.02 23.33 17.31 27.07 26.02 22.51 26.02"/>
        <polygon class="cls-27" points="22.51 26.02 23.33 17.31 17.49 26.02 22.51 26.02"/>
        <polygon class="cls-10" points="12.3 20.07 23.33 17.31 17.22 14.6 12.3 20.07"/>
        <polygon class="cls-1" points="12.3 20.07 23.33 17.31 17.49 26.02 12.3 20.07"/>
      </g>
      <g>
        <g>
          <polygon class="cls-37" points="17.22 30.56 15.19 30.01 15.12 30.16 13.5 33.76 17.22 34.59 17.22 30.56"/>
          <polygon class="cls-44" points="17.22 40.42 17.22 38.75 15.14 39.78 17.22 40.42"/>
          <polygon class="cls-21" points="17.22 26.73 15.19 30.01 17.22 30.56 17.22 26.73"/>
          <polygon class="cls-44" points="13.48 37.16 13.48 37.17 15.12 39.77 15.14 39.78 17.22 38.75 17.22 36.49 13.48 37.16"/>
          <polygon class="cls-22" points="17.22 34.59 13.5 33.76 13.48 33.79 13.48 37.16 17.22 36.49 17.22 34.59"/>
        </g>
        <g>
          <polygon class="cls-26" points="17.22 30.56 19.26 30.01 19.32 30.16 20.95 33.76 17.22 34.59 17.22 30.56"/>
          <polygon class="cls-7" points="17.22 40.42 17.22 38.75 19.31 39.78 17.22 40.42"/>
          <polygon class="cls-22" points="17.22 26.73 19.26 30.01 17.22 30.56 17.22 26.73"/>
          <polygon class="cls-27" points="20.96 37.16 20.96 37.17 19.32 39.77 19.31 39.78 17.22 38.75 17.22 36.49 20.96 37.16"/>
          <polygon class="cls-44" points="17.22 34.59 20.95 33.76 20.96 33.79 20.96 37.16 17.22 36.49 17.22 34.59"/>
        </g>
      </g>
      <g>
        <g>
          <polygon class="cls-37" points="26.4 29.36 25.31 29.07 25.27 29.15 24.4 31.08 26.4 31.52 26.4 29.36"/>
          <polygon class="cls-44" points="26.4 34.64 26.4 33.75 25.28 34.3 26.4 34.64"/>
          <polygon class="cls-21" points="26.4 27.31 25.31 29.07 26.4 29.36 26.4 27.31"/>
          <polygon class="cls-44" points="24.39 32.9 24.39 32.9 25.27 34.3 25.28 34.3 26.4 33.75 26.4 32.54 24.39 32.9"/>
          <polygon class="cls-22" points="26.4 31.52 24.4 31.08 24.39 31.09 24.39 32.9 26.4 32.54 26.4 31.52"/>
        </g>
        <g>
          <polygon class="cls-26" points="26.4 29.36 27.49 29.07 27.52 29.15 28.39 31.08 26.4 31.52 26.4 29.36"/>
          <polygon class="cls-7" points="26.4 34.64 26.4 33.75 27.52 34.3 26.4 34.64"/>
          <polygon class="cls-22" points="26.4 27.31 27.49 29.07 26.4 29.36 26.4 27.31"/>
          <polygon class="cls-27" points="28.4 32.9 28.4 32.9 27.52 34.3 27.52 34.3 26.4 33.75 26.4 32.54 28.4 32.9"/>
          <polygon class="cls-44" points="26.4 31.52 28.39 31.08 28.4 31.09 28.4 32.9 26.4 32.54 26.4 31.52"/>
        </g>
      </g>
      <g>
        <g>
          <polygon class="cls-37" points="7.69 29.94 6.6 29.65 6.57 29.73 5.7 31.66 7.69 32.1 7.69 29.94"/>
          <polygon class="cls-44" points="7.69 35.22 7.69 34.33 6.58 34.88 7.69 35.22"/>
          <polygon class="cls-21" points="7.69 27.89 6.6 29.65 7.69 29.94 7.69 27.89"/>
          <polygon class="cls-44" points="5.69 33.48 5.69 33.48 6.57 34.88 6.58 34.88 7.69 34.33 7.69 33.12 5.69 33.48"/>
          <polygon class="cls-22" points="7.69 32.1 5.7 31.66 5.69 31.67 5.69 33.48 7.69 33.12 7.69 32.1"/>
        </g>
        <g>
          <polygon class="cls-26" points="7.69 29.94 8.79 29.65 8.82 29.73 9.69 31.66 7.69 32.1 7.69 29.94"/>
          <polygon class="cls-7" points="7.69 35.22 7.69 34.33 8.81 34.88 7.69 35.22"/>
          <polygon class="cls-22" points="7.69 27.89 8.79 29.65 7.69 29.94 7.69 27.89"/>
          <polygon class="cls-27" points="9.7 33.48 9.7 33.48 8.82 34.88 8.81 34.88 7.69 34.33 7.69 33.12 9.7 33.48"/>
          <polygon class="cls-44" points="7.69 32.1 9.69 31.66 9.7 31.67 9.7 33.48 7.69 33.12 7.69 32.1"/>
        </g>
      </g>
    </g>
  </g>
</svg>