<?xml version="1.0" encoding="UTF-8"?>
<svg id="Layer_2" xmlns="http://www.w3.org/2000/svg" viewBox="0 0 18.75 39.15">
  <defs>
    <style>
      .cls-1 {
        fill: #ff3d6a;
      }

      .cls-2 {
        fill: #ff6257;
      }

      .cls-3 {
        fill: #d53688;
      }

      .cls-4 {
        fill: #fe456f;
      }

      .cls-5 {
        fill: #f78759;
      }

      .cls-6 {
        fill: #ff8157;
      }

      .cls-7 {
        fill: #f68;
      }

      .cls-8 {
        fill: #8f075c;
      }

      .cls-9 {
        fill: #e24481;
      }

      .cls-10 {
        fill: #920b5a;
      }

      .cls-11 {
        fill: #c6226b;
      }

      .cls-12 {
        fill: #dc367e;
      }

      .cls-13 {
        fill: #d23c7b;
      }

      .cls-14 {
        fill: #da3e7f;
      }

      .cls-15 {
        fill: #9a0c58;
      }
    </style>
  </defs>
  <g id="Layer_1-2" data-name="Layer_1">
    <g>
      <g>
        <g>
          <g>
            <polygon class="cls-7" points="10.51 22.22 10.51 22.22 13.73 20.86 13.73 12.14 10.51 13.18 10.51 22.22"/>
            <path class="cls-14" d="M10.51,13.18l3.23-1.04v-4.44c-.92-.07-2.04-.15-3.23-.24v5.71Z"/>
            <path class="cls-5" d="M10.51,7.47c1.18.09,2.31.17,3.23.24V2.3l-3.23,1.21v3.96Z"/>
            <polygon class="cls-12" points="10.51 3.49 10.51 3.51 13.73 2.3 13.73 2.27 9.37 0 9.37 3.81 10.51 3.49"/>
            <polygon class="cls-8" points="15.52 27.23 15.52 32.27 18.75 33.61 18.75 25.9 15.51 27.22 15.52 27.23"/>
            <polygon class="cls-4" points="15.52 32.32 11.92 35.92 11.88 35.92 13.24 39.15 13.26 39.15 18.75 33.66 18.75 33.61 15.52 32.27 15.52 32.32"/>
            <polygon class="cls-9" points="13.73 20.88 13.73 20.86 10.51 22.22 15.51 27.22 18.75 25.9 18.75 25.89 13.73 20.88"/>
            <polygon class="cls-11" points="6.83 35.92 5.48 39.13 5.49 39.15 13.24 39.15 11.88 35.92 6.83 35.92"/>
            <polygon class="cls-13" points="3.23 27.23 3.24 27.22 0 25.9 0 33.65 3.23 32.31 3.23 27.23"/>
            <polygon class="cls-2" points="8.24 3.49 9.37 3.81 9.37 0 5.01 2.27 5.01 2.3 8.24 3.51 8.24 3.49"/>
            <polygon class="cls-10" points="6.83 35.92 3.23 32.32 3.23 32.31 0 33.65 0 33.66 5.48 39.13 6.83 35.92 6.83 35.92"/>
            <polygon class="cls-15" points="8.24 22.22 8.24 22.22 5.01 20.85 5.01 20.88 0 25.89 0 25.9 3.24 27.22 8.24 22.22"/>
            <path class="cls-6" d="M8.24,3.51l-3.23-1.21v4.77c.97.07,2.08.15,3.23.23v-3.79Z"/>
            <path class="cls-1" d="M8.24,7.3c-1.15-.08-2.26-.16-3.23-.23v7.88l3.23-1.04v-6.61Z"/>
            <polygon class="cls-3" points="8.24 13.91 5.01 14.95 5.01 20.85 8.24 22.22 8.24 13.91"/>
            <polygon class="cls-10" points="9.44 29.74 5.51 28.17 5.51 31.26 5.62 31.38 9.44 29.74 9.44 29.74"/>
            <polygon class="cls-13" points="7.75 25.81 5.51 28.06 5.51 28.17 9.44 29.74 7.75 25.81"/>
            <polygon class="cls-11" points="9.44 29.74 5.62 31.38 7.77 33.53 7.93 33.53 9.44 29.74 9.44 29.74"/>
            <polygon class="cls-4" points="7.93 33.53 10.97 33.53 11.04 33.46 9.44 29.74 7.93 33.53"/>
            <polygon class="cls-3" points="13.24 28.11 13.24 28.06 11 25.82 9.44 29.74 13.24 28.11"/>
            <polygon class="cls-7" points="7.75 25.81 9.44 29.74 9.44 29.74 9.44 29.74 11 25.82 10.97 25.79 7.77 25.79 7.75 25.81"/>
            <polygon class="cls-8" points="9.44 29.74 11.04 33.46 13.24 31.26 13.24 31.25 9.44 29.74 9.44 29.74"/>
            <polygon class="cls-9" points="9.44 29.74 13.24 31.25 13.24 28.11 9.44 29.74 9.44 29.74"/>
          </g>
          <rect class="cls-1" x="13.73" y="4.8" width="4.09" height="2.04"/>
          <rect class="cls-14" x="13.73" y="9.3" width="4.09" height="2.04"/>
          <rect class="cls-8" x="13.73" y="13.8" width="4.09" height="2.04"/>
          <rect class="cls-15" x="13.73" y="18.31" width="4.09" height="2.04"/>
        </g>
        <polygon class="cls-14" points="7.77 25.79 9.36 22.22 11 25.82 7.77 25.79"/>
      </g>
      <rect class="cls-14" x="9.09" y="7" width=".54" height="16.41"/>
    </g>
  </g>
</svg>