<?xml version="1.0" encoding="UTF-8"?>
<svg id="Layer_2" xmlns="http://www.w3.org/2000/svg" viewBox="0 0 36.89 23.62">
  <defs>
    <style>
      .cls-1 {
        fill: #0539b3;
      }

      .cls-2 {
        fill: #032f87;
      }

      .cls-3 {
        fill: #91f0ff;
      }

      .cls-4 {
        fill: #4165a3;
      }

      .cls-5 {
        fill: #0ba5f4;
      }

      .cls-6 {
        fill: #6bb6ef;
      }

      .cls-7 {
        fill: #02237d;
      }

      .cls-8 {
        fill: #ff8629;
      }

      .cls-9 {
        fill: #0876dd;
      }

      .cls-10 {
        fill: #ff9b43;
      }

      .cls-11 {
        fill: #4bd4f7;
      }

      .cls-12 {
        fill: #03408d;
      }

      .cls-13 {
        fill: #175ab2;
      }

      .cls-14 {
        fill: #0951b2;
      }

      .cls-15 {
        fill: #2145a2;
      }

      .cls-16 {
        fill: #42a3e6;
      }

      .cls-17 {
        fill: #70e1fd;
      }

      .cls-18 {
        fill: #69cafb;
      }

      .cls-19 {
        fill: #29bbf1;
      }

      .cls-20 {
        fill: #f78851;
      }

      .cls-21 {
        fill: #1f73ca;
      }

      .cls-22 {
        fill: #0da4f4;
      }

      .cls-23 {
        fill: #fa960a;
      }

      .cls-24 {
        fill: #0b8eed;
      }

      .cls-25 {
        fill: #022e90;
      }

      .cls-26 {
        fill: #0b68d4;
      }

      .cls-27 {
        fill: #e55f06;
      }

      .cls-28 {
        fill: #ffce29;
      }

      .cls-29 {
        fill: #fe6c05;
      }

      .cls-30 {
        fill: #4170ce;
      }

      .cls-31 {
        fill: #ffa31e;
      }

      .cls-32 {
        fill: #54a9ef;
      }

      .cls-33 {
        fill: #6191d6;
      }

      .cls-34 {
        fill: #6076df;
      }

      .cls-35 {
        fill: #68f3fb;
      }

      .cls-36 {
        fill: #7ce1f2;
      }

      .cls-37 {
        fill: #85e8fb;
      }

      .cls-38 {
        fill: #84cde0;
      }

      .cls-39 {
        fill: #5380c9;
      }

      .cls-40 {
        fill: #0863b4;
      }

      .cls-41 {
        fill: #042d9f;
      }
    </style>
  </defs>
  <g id="Layer_1-2" data-name="Layer_1">
    <g>
      <g>
        <polygon class="cls-28" points="7.52 0 11.08 1.5 8.54 2.11 7.52 0"/>
        <polygon class="cls-10" points="13.4 3.55 11.08 1.5 8.54 2.11 13.4 3.55"/>
        <polygon class="cls-28" points="13.4 3.55 14.08 6.09 8.54 2.11 13.4 3.55"/>
        <polygon class="cls-10" points="9.49 4.22 14.08 6.09 8.54 2.11 9.49 4.22"/>
        <polygon class="cls-20" points="9.49 4.22 14.08 6.09 9.05 6.69 9.49 4.22"/>
        <polygon class="cls-10" points="14.34 9.36 14.08 6.09 9.05 6.69 14.34 9.36"/>
        <polygon class="cls-27" points="14.34 9.36 13.25 11.68 9.05 6.69 14.34 9.36"/>
        <polygon class="cls-29" points="8.5 8.91 13.25 11.68 9.05 6.69 8.5 8.91"/>
        <polygon class="cls-8" points="8.5 8.91 13.25 11.68 11.77 13.75 8.5 8.91"/>
        <polygon class="cls-31" points="8.5 8.91 9.67 15.17 11.77 13.75 8.5 8.91"/>
        <polygon class="cls-23" points="8.5 8.91 9.67 15.17 6.71 10.79 8.5 8.91"/>
        <polygon class="cls-20" points="8.05 15.72 9.67 15.17 6.71 10.79 8.05 15.72"/>
        <polygon class="cls-8" points="8.05 15.72 5.14 11.94 6.71 10.79 8.05 15.72"/>
        <polygon class="cls-29" points="8.05 15.72 5.14 11.94 6.17 15.92 8.05 15.72"/>
        <polygon class="cls-27" points="3.72 12.8 5.14 11.94 6.17 15.92 3.72 12.8"/>
        <polygon class="cls-29" points="3.72 12.8 4.52 15.72 6.17 15.92 3.72 12.8"/>
        <polygon class="cls-10" points="3.72 12.8 4.52 15.72 2.41 12.87 3.72 12.8"/>
        <polygon class="cls-27" points="2.52 14.98 4.52 15.72 2.41 12.87 2.52 14.98"/>
        <polygon class="cls-27" points="2.52 14.98 1.14 14.17 2.41 12.87 2.52 14.98"/>
        <polygon class="cls-29" points="0 12.87 1.14 14.17 2.41 12.87 0 12.87"/>
      </g>
      <g>
        <polygon class="cls-3" points="10.53 10.11 11.34 8.5 13.04 7.65 21.04 13 10.53 10.11"/>
        <polygon class="cls-5" points="10.53 10.11 16.46 18.09 21.04 13 10.53 10.11"/>
        <polygon class="cls-19" points="10.53 10.11 16.46 18.09 6.21 16.81 10.53 10.11"/>
        <polygon class="cls-35" points="10.53 10.11 6.7 12.7 6.21 16.81 10.53 10.11"/>
        <polygon class="cls-38" points="5.03 15.55 6.7 12.7 6.21 16.81 5.03 15.55"/>
        <polygon class="cls-6" points="5.03 15.55 5.03 18.96 6.21 16.81 5.03 15.55"/>
        <polygon class="cls-15" points="6.58 20.47 16.46 18.09 6.21 16.81 6.58 20.47"/>
        <polygon class="cls-30" points="6.58 20.47 16.46 18.09 6.21 16.81 6.58 20.47"/>
        <polygon class="cls-39" points="6.58 20.47 16.46 18.09 7.89 22.85 6.58 20.47"/>
        <polygon class="cls-4" points="10.88 23.62 16.46 18.09 7.89 22.85 10.88 23.62"/>
        <polygon class="cls-13" points="10.88 23.62 16.46 18.09 16.46 23.62 10.88 23.62"/>
        <polygon class="cls-14" points="21.29 23.62 16.46 18.09 16.46 23.62 21.29 23.62"/>
        <polygon class="cls-33" points="6.58 20.47 5.03 18.96 6.21 16.81 6.58 20.47"/>
        <polygon class="cls-34" points="6.58 20.47 5.03 18.96 7.89 22.85 6.58 20.47"/>
        <polygon class="cls-37" points="16.74 7.65 13.04 7.65 21.04 13 16.74 7.65"/>
        <polygon class="cls-36" points="16.74 7.65 19.49 5.15 21.04 13 16.74 7.65"/>
        <polygon class="cls-11" points="26.71 9.87 19.49 5.15 21.04 13 26.71 9.87"/>
        <polygon class="cls-17" points="26.71 9.87 19.49 5.15 23.44 3.77 26.71 9.87"/>
        <polygon class="cls-18" points="26.71 9.87 26.71 4.31 23.44 3.77 26.71 9.87"/>
        <polygon class="cls-32" points="26.71 9.87 26.71 4.31 29.48 6.05 26.71 9.87"/>
        <polygon class="cls-16" points="26.71 9.87 31.51 8.62 29.48 6.05 26.71 9.87"/>
        <polygon class="cls-21" points="26.71 9.87 31.51 8.62 32.41 10.83 26.71 9.87"/>
        <polygon class="cls-22" points="26.71 9.87 26.71 15.53 21.04 13 26.71 9.87"/>
        <polygon class="cls-24" points="26.71 9.87 26.71 15.53 32.41 10.83 26.71 9.87"/>
        <polygon class="cls-26" points="34.86 12.14 26.71 15.53 32.41 10.83 34.86 12.14"/>
        <polygon class="cls-40" points="34.86 12.14 26.71 15.53 36.65 14.89 34.86 12.14"/>
        <polygon class="cls-41" points="36.89 18.09 26.71 15.53 36.65 14.89 36.89 18.09"/>
        <polygon class="cls-2" points="36.89 18.09 26.71 15.53 36 20.75 36.89 18.09"/>
        <polygon class="cls-7" points="33.6 22.85 26.71 15.53 36 20.75 33.6 22.85"/>
        <polygon class="cls-2" points="33.6 22.85 26.71 15.53 30.2 23.62 33.6 22.85"/>
        <polygon class="cls-12" points="25.95 23.62 26.71 15.53 30.2 23.62 25.95 23.62"/>
        <polygon class="cls-25" points="25.95 23.62 26.71 15.53 21.29 23.62 25.95 23.62"/>
        <polygon class="cls-9" points="16.46 18.09 26.71 15.53 21.04 13 16.46 18.09"/>
        <polygon class="cls-1" points="16.46 18.09 26.71 15.53 21.29 23.62 16.46 18.09"/>
      </g>
    </g>
  </g>
</svg>