<?xml version="1.0" encoding="UTF-8"?>
<svg id="Layer_2" xmlns="http://www.w3.org/2000/svg" viewBox="0 0 35.81 41.26">
  <defs>
    <style>
      .cls-1 {
        fill: #0539b3;
      }

      .cls-2 {
        fill: #032f87;
      }

      .cls-3 {
        fill: #91f0ff;
      }

      .cls-4 {
        fill: #4165a3;
      }

      .cls-5 {
        fill: #0ba5f4;
      }

      .cls-6 {
        fill: #6bb6ef;
      }

      .cls-7 {
        fill: #02237d;
      }

      .cls-8 {
        fill: #ff8629;
      }

      .cls-9 {
        fill: #0876dd;
      }

      .cls-10 {
        fill: #ff9b43;
      }

      .cls-11 {
        fill: #4bd4f7;
      }

      .cls-12 {
        fill: #03408d;
      }

      .cls-13 {
        fill: #175ab2;
      }

      .cls-14 {
        fill: #0951b2;
      }

      .cls-15 {
        fill: #2145a2;
      }

      .cls-16 {
        fill: #42a3e6;
      }

      .cls-17 {
        fill: #70e1fd;
      }

      .cls-18 {
        fill: #69cafb;
      }

      .cls-19 {
        fill: #29bbf1;
      }

      .cls-20 {
        fill: #f78851;
      }

      .cls-21 {
        fill: #1f73ca;
      }

      .cls-22 {
        fill: #0da4f4;
      }

      .cls-23 {
        fill: #fa960a;
      }

      .cls-24 {
        fill: #0b8eed;
      }

      .cls-25 {
        fill: #022e90;
      }

      .cls-26 {
        fill: #0b68d4;
      }

      .cls-27 {
        fill: #e55f06;
      }

      .cls-28 {
        fill: #ffce29;
      }

      .cls-29 {
        fill: #fe6c05;
      }

      .cls-30 {
        fill: #4170ce;
      }

      .cls-31 {
        fill: #ffa31e;
      }

      .cls-32 {
        fill: #54a9ef;
      }

      .cls-33 {
        fill: #6191d6;
      }

      .cls-34 {
        fill: #6076df;
      }

      .cls-35 {
        fill: #68f3fb;
      }

      .cls-36 {
        fill: #7ce1f2;
      }

      .cls-37 {
        fill: #85e8fb;
      }

      .cls-38 {
        fill: #84cde0;
      }

      .cls-39 {
        fill: #5380c9;
      }

      .cls-40 {
        fill: #0863b4;
      }

      .cls-41 {
        fill: #042d9f;
      }
    </style>
  </defs>
  <g id="Layer_1-2" data-name="Layer_1">
    <g>
      <g>
        <polygon class="cls-28" points="7.52 0 11.08 1.5 8.54 2.11 7.52 0"/>
        <polygon class="cls-10" points="13.4 3.55 11.08 1.5 8.54 2.11 13.4 3.55"/>
        <polygon class="cls-28" points="13.4 3.55 14.08 6.09 8.54 2.11 13.4 3.55"/>
        <polygon class="cls-10" points="9.49 4.22 14.08 6.09 8.54 2.11 9.49 4.22"/>
        <polygon class="cls-20" points="9.49 4.22 14.08 6.09 9.05 6.69 9.49 4.22"/>
        <polygon class="cls-10" points="14.34 9.36 14.08 6.09 9.05 6.69 14.34 9.36"/>
        <polygon class="cls-27" points="14.34 9.36 13.25 11.68 9.05 6.69 14.34 9.36"/>
        <polygon class="cls-29" points="8.5 8.91 13.25 11.68 9.05 6.69 8.5 8.91"/>
        <polygon class="cls-8" points="8.5 8.91 13.25 11.68 11.77 13.75 8.5 8.91"/>
        <polygon class="cls-31" points="8.5 8.91 9.67 15.17 11.77 13.75 8.5 8.91"/>
        <polygon class="cls-23" points="8.5 8.91 9.67 15.17 6.71 10.79 8.5 8.91"/>
        <polygon class="cls-20" points="8.05 15.72 9.67 15.17 6.71 10.79 8.05 15.72"/>
        <polygon class="cls-8" points="8.05 15.72 5.14 11.94 6.71 10.79 8.05 15.72"/>
        <polygon class="cls-29" points="8.05 15.72 5.14 11.94 6.17 15.92 8.05 15.72"/>
        <polygon class="cls-27" points="3.72 12.8 5.14 11.94 6.17 15.92 3.72 12.8"/>
        <polygon class="cls-29" points="3.72 12.8 4.52 15.72 6.17 15.92 3.72 12.8"/>
        <polygon class="cls-10" points="3.72 12.8 4.52 15.72 2.41 12.87 3.72 12.8"/>
        <polygon class="cls-27" points="2.52 14.98 4.52 15.72 2.41 12.87 2.52 14.98"/>
        <polygon class="cls-27" points="2.52 14.98 1.14 14.17 2.41 12.87 2.52 14.98"/>
        <polygon class="cls-29" points="0 12.87 1.14 14.17 2.41 12.87 0 12.87"/>
      </g>
      <g>
        <g>
          <polygon class="cls-3" points="7.45 12.33 8.32 10.6 10.16 9.69 18.76 15.44 7.45 12.33"/>
          <polygon class="cls-5" points="7.45 12.33 13.84 20.91 18.76 15.44 7.45 12.33"/>
          <polygon class="cls-19" points="7.45 12.33 13.84 20.91 2.81 19.53 7.45 12.33"/>
          <polygon class="cls-35" points="7.45 12.33 3.33 15.11 2.81 19.53 7.45 12.33"/>
          <polygon class="cls-38" points="1.53 18.18 3.33 15.11 2.81 19.53 1.53 18.18"/>
          <polygon class="cls-6" points="1.53 18.18 1.53 21.85 2.81 19.53 1.53 18.18"/>
          <polygon class="cls-15" points="3.2 23.47 13.84 20.91 2.81 19.53 3.2 23.47"/>
          <polygon class="cls-30" points="3.2 23.47 13.84 20.91 2.81 19.53 3.2 23.47"/>
          <polygon class="cls-39" points="3.2 23.47 13.84 20.91 4.62 26.03 3.2 23.47"/>
          <polygon class="cls-4" points="7.84 26.86 13.84 20.91 4.62 26.03 7.84 26.86"/>
          <polygon class="cls-13" points="7.84 26.86 13.84 20.91 13.84 26.86 7.84 26.86"/>
          <polygon class="cls-14" points="19.03 26.86 13.84 20.91 13.84 26.86 19.03 26.86"/>
          <polygon class="cls-33" points="3.2 23.47 1.53 21.85 2.81 19.53 3.2 23.47"/>
          <polygon class="cls-34" points="3.2 23.47 1.53 21.85 4.62 26.03 3.2 23.47"/>
          <polygon class="cls-37" points="14.14 9.69 10.16 9.69 18.76 15.44 14.14 9.69"/>
          <polygon class="cls-36" points="14.14 9.69 17.1 7 18.76 15.44 14.14 9.69"/>
          <polygon class="cls-11" points="24.86 12.07 17.1 7 18.76 15.44 24.86 12.07"/>
          <polygon class="cls-17" points="24.86 12.07 17.1 7 21.34 5.52 24.86 12.07"/>
          <polygon class="cls-18" points="24.86 12.07 24.86 6.09 21.34 5.52 24.86 12.07"/>
          <polygon class="cls-32" points="24.86 12.07 24.86 6.09 27.83 7.96 24.86 12.07"/>
          <polygon class="cls-16" points="24.86 12.07 30.02 10.72 27.83 7.96 24.86 12.07"/>
          <polygon class="cls-21" points="24.86 12.07 30.02 10.72 30.99 13.1 24.86 12.07"/>
          <polygon class="cls-22" points="24.86 12.07 24.86 18.16 18.76 15.44 24.86 12.07"/>
          <polygon class="cls-24" points="24.86 12.07 24.86 18.16 30.99 13.1 24.86 12.07"/>
          <polygon class="cls-26" points="33.62 14.52 24.86 18.16 30.99 13.1 33.62 14.52"/>
          <polygon class="cls-40" points="33.62 14.52 24.86 18.16 35.55 17.48 33.62 14.52"/>
          <polygon class="cls-41" points="35.81 20.91 24.86 18.16 35.55 17.48 35.81 20.91"/>
          <polygon class="cls-2" points="35.81 20.91 24.86 18.16 34.84 23.78 35.81 20.91"/>
          <polygon class="cls-7" points="32.27 26.03 24.86 18.16 34.84 23.78 32.27 26.03"/>
          <polygon class="cls-2" points="32.27 26.03 24.86 18.16 28.61 26.86 32.27 26.03"/>
          <polygon class="cls-12" points="24.04 26.86 24.86 18.16 28.61 26.86 24.04 26.86"/>
          <polygon class="cls-25" points="24.04 26.86 24.86 18.16 19.03 26.86 24.04 26.86"/>
          <polygon class="cls-9" points="13.84 20.91 24.86 18.16 18.76 15.44 13.84 20.91"/>
          <polygon class="cls-1" points="13.84 20.91 24.86 18.16 19.03 26.86 13.84 20.91"/>
        </g>
        <g>
          <g>
            <polygon class="cls-35" points="18.76 31.4 16.72 30.85 16.66 31 15.03 34.6 18.76 35.43 18.76 31.4"/>
            <polygon class="cls-40" points="18.76 41.26 18.76 39.59 16.67 40.62 18.76 41.26"/>
            <polygon class="cls-18" points="18.76 27.57 16.72 30.85 18.76 31.4 18.76 27.57"/>
            <polygon class="cls-40" points="15.02 38 15.02 38.01 16.66 40.61 16.67 40.62 18.76 39.59 18.76 37.33 15.02 38"/>
            <polygon class="cls-19" points="18.76 35.43 15.03 34.6 15.02 34.63 15.02 38 18.76 37.33 18.76 35.43"/>
          </g>
          <g>
            <polygon class="cls-24" points="18.76 31.4 20.79 30.85 20.86 31 22.48 34.6 18.76 35.43 18.76 31.4"/>
            <polygon class="cls-7" points="18.76 41.26 18.76 39.59 20.85 40.62 18.76 41.26"/>
            <polygon class="cls-19" points="18.76 27.57 20.79 30.85 18.76 31.4 18.76 27.57"/>
            <polygon class="cls-25" points="22.5 38 22.5 38.01 20.86 40.61 20.85 40.62 18.76 39.59 18.76 37.33 22.5 38"/>
            <polygon class="cls-40" points="18.76 35.43 22.48 34.6 22.5 34.63 22.5 38 18.76 37.33 18.76 35.43"/>
          </g>
        </g>
        <g>
          <g>
            <polygon class="cls-35" points="27.93 30.2 26.84 29.91 26.81 29.99 25.94 31.92 27.93 32.36 27.93 30.2"/>
            <polygon class="cls-40" points="27.93 35.48 27.93 34.59 26.81 35.14 27.93 35.48"/>
            <polygon class="cls-18" points="27.93 28.15 26.84 29.91 27.93 30.2 27.93 28.15"/>
            <polygon class="cls-40" points="25.93 33.74 25.93 33.74 26.81 35.14 26.81 35.14 27.93 34.59 27.93 33.38 25.93 33.74"/>
            <polygon class="cls-19" points="27.93 32.36 25.94 31.92 25.93 31.93 25.93 33.74 27.93 33.38 27.93 32.36"/>
          </g>
          <g>
            <polygon class="cls-24" points="27.93 30.2 29.02 29.91 29.06 29.99 29.93 31.92 27.93 32.36 27.93 30.2"/>
            <polygon class="cls-7" points="27.93 35.48 27.93 34.59 29.05 35.14 27.93 35.48"/>
            <polygon class="cls-19" points="27.93 28.15 29.02 29.91 27.93 30.2 27.93 28.15"/>
            <polygon class="cls-25" points="29.94 33.74 29.94 33.74 29.06 35.14 29.05 35.14 27.93 34.59 27.93 33.38 29.94 33.74"/>
            <polygon class="cls-40" points="27.93 32.36 29.93 31.92 29.94 31.93 29.94 33.74 27.93 33.38 27.93 32.36"/>
          </g>
        </g>
        <g>
          <g>
            <polygon class="cls-35" points="9.23 30.79 8.14 30.49 8.1 30.57 7.23 32.5 9.23 32.94 9.23 30.79"/>
            <polygon class="cls-40" points="9.23 36.06 9.23 35.17 8.11 35.72 9.23 36.06"/>
            <polygon class="cls-18" points="9.23 28.73 8.14 30.49 9.23 30.79 9.23 28.73"/>
            <polygon class="cls-40" points="7.22 34.32 7.22 34.32 8.1 35.72 8.11 35.72 9.23 35.17 9.23 33.96 7.22 34.32"/>
            <polygon class="cls-19" points="9.23 32.94 7.23 32.5 7.22 32.52 7.22 34.32 9.23 33.96 9.23 32.94"/>
          </g>
          <g>
            <polygon class="cls-24" points="9.23 30.79 10.32 30.49 10.35 30.57 11.22 32.5 9.23 32.94 9.23 30.79"/>
            <polygon class="cls-7" points="9.23 36.06 9.23 35.17 10.35 35.72 9.23 36.06"/>
            <polygon class="cls-19" points="9.23 28.73 10.32 30.49 9.23 30.79 9.23 28.73"/>
            <polygon class="cls-25" points="11.23 34.32 11.23 34.32 10.35 35.72 10.35 35.72 9.23 35.17 9.23 33.96 11.23 34.32"/>
            <polygon class="cls-40" points="9.23 32.94 11.22 32.5 11.23 32.52 11.23 34.32 9.23 33.96 9.23 32.94"/>
          </g>
        </g>
      </g>
    </g>
  </g>
</svg>