<?xml version="1.0" encoding="UTF-8"?>
<svg id="Layer_2" xmlns="http://www.w3.org/2000/svg" viewBox="0 0 31.87 33.48">
  <defs>
    <style>
      .cls-1 {
        fill: #0539b3;
      }

      .cls-2 {
        fill: #032f87;
      }

      .cls-3 {
        fill: #91f0ff;
      }

      .cls-4 {
        fill: #4165a3;
      }

      .cls-5 {
        fill: #0ba5f4;
      }

      .cls-6 {
        fill: #6bb6ef;
      }

      .cls-7 {
        fill: #02237d;
      }

      .cls-8 {
        fill: #0876dd;
      }

      .cls-9 {
        fill: #4bd4f7;
      }

      .cls-10 {
        fill: #03408d;
      }

      .cls-11 {
        fill: #175ab2;
      }

      .cls-12 {
        fill: #0951b2;
      }

      .cls-13 {
        fill: #2145a2;
      }

      .cls-14 {
        fill: #42a3e6;
      }

      .cls-15 {
        fill: #70e1fd;
      }

      .cls-16 {
        fill: #69cafb;
      }

      .cls-17 {
        fill: #29bbf1;
      }

      .cls-18 {
        fill: #1f73ca;
      }

      .cls-19 {
        fill: #0da4f4;
      }

      .cls-20 {
        fill: #0b8eed;
      }

      .cls-21 {
        fill: #022e90;
      }

      .cls-22 {
        fill: #0b68d4;
      }

      .cls-23 {
        fill: #4170ce;
      }

      .cls-24 {
        fill: #54a9ef;
      }

      .cls-25 {
        fill: #6191d6;
      }

      .cls-26 {
        fill: #6076df;
      }

      .cls-27 {
        fill: #68f3fb;
      }

      .cls-28 {
        fill: #7ce1f2;
      }

      .cls-29 {
        fill: #85e8fb;
      }

      .cls-30 {
        fill: #84cde0;
      }

      .cls-31 {
        fill: #5380c9;
      }

      .cls-32 {
        fill: #0863b4;
      }

      .cls-33 {
        fill: #042d9f;
      }
    </style>
  </defs>
  <g id="Layer_1-2" data-name="Layer_1">
    <g>
      <g>
        <g>
          <polygon class="cls-27" points="22.46 23.98 20.56 23.47 20.5 23.6 18.99 26.95 22.46 27.72 22.46 23.98"/>
          <polygon class="cls-32" points="22.46 33.14 22.46 31.59 20.51 32.55 22.46 33.14"/>
          <polygon class="cls-16" points="22.46 20.41 20.56 23.47 22.46 23.98 22.46 20.41"/>
          <polygon class="cls-32" points="18.98 30.11 18.98 30.12 20.5 32.54 20.51 32.55 22.46 31.59 22.46 29.49 18.98 30.11"/>
          <polygon class="cls-17" points="22.46 27.72 18.99 26.95 18.98 26.98 18.98 30.11 22.46 29.49 22.46 27.72"/>
        </g>
        <g>
          <polygon class="cls-20" points="22.46 23.98 24.35 23.47 24.41 23.6 25.92 26.95 22.46 27.72 22.46 23.98"/>
          <polygon class="cls-7" points="22.46 33.14 22.46 31.59 24.4 32.55 22.46 33.14"/>
          <polygon class="cls-17" points="22.46 20.41 24.35 23.47 22.46 23.98 22.46 20.41"/>
          <polygon class="cls-21" points="25.93 30.11 25.93 30.12 24.41 32.54 24.4 32.55 22.46 31.59 22.46 29.49 25.93 30.11"/>
          <polygon class="cls-32" points="22.46 27.72 25.92 26.95 25.93 26.98 25.93 30.11 22.46 29.49 22.46 27.72"/>
        </g>
      </g>
      <g>
        <polygon class="cls-3" points="5.5 6.34 6.31 4.72 8.02 3.88 16.01 9.23 5.5 6.34"/>
        <polygon class="cls-5" points="5.5 6.34 11.44 14.32 16.01 9.23 5.5 6.34"/>
        <polygon class="cls-17" points="5.5 6.34 11.44 14.32 1.18 13.03 5.5 6.34"/>
        <polygon class="cls-27" points="5.5 6.34 1.67 8.92 1.18 13.03 5.5 6.34"/>
        <polygon class="cls-30" points="0 11.77 1.67 8.92 1.18 13.03 0 11.77"/>
        <polygon class="cls-6" points="0 11.77 0 15.19 1.18 13.03 0 11.77"/>
        <polygon class="cls-13" points="1.55 16.7 11.44 14.32 1.18 13.03 1.55 16.7"/>
        <polygon class="cls-23" points="1.55 16.7 11.44 14.32 1.18 13.03 1.55 16.7"/>
        <polygon class="cls-31" points="1.55 16.7 11.44 14.32 2.87 19.07 1.55 16.7"/>
        <polygon class="cls-4" points="5.86 19.85 11.44 14.32 2.87 19.07 5.86 19.85"/>
        <polygon class="cls-11" points="5.86 19.85 11.44 14.32 11.44 19.85 5.86 19.85"/>
        <polygon class="cls-12" points="16.26 19.85 11.44 14.32 11.44 19.85 16.26 19.85"/>
        <polygon class="cls-25" points="1.55 16.7 0 15.19 1.18 13.03 1.55 16.7"/>
        <polygon class="cls-26" points="1.55 16.7 0 15.19 2.87 19.07 1.55 16.7"/>
        <polygon class="cls-29" points="11.72 3.88 8.02 3.88 16.01 9.23 11.72 3.88"/>
        <polygon class="cls-28" points="11.72 3.88 14.47 1.38 16.01 9.23 11.72 3.88"/>
        <polygon class="cls-9" points="21.69 6.1 14.47 1.38 16.01 9.23 21.69 6.1"/>
        <polygon class="cls-15" points="21.69 6.1 14.47 1.38 18.41 0 21.69 6.1"/>
        <polygon class="cls-16" points="21.69 6.1 21.69 .54 18.41 0 21.69 6.1"/>
        <polygon class="cls-24" points="21.69 6.1 21.69 .54 24.45 2.27 21.69 6.1"/>
        <polygon class="cls-14" points="21.69 6.1 26.48 4.84 24.45 2.27 21.69 6.1"/>
        <polygon class="cls-18" points="21.69 6.1 26.48 4.84 27.38 7.05 21.69 6.1"/>
        <polygon class="cls-19" points="21.69 6.1 21.69 11.75 16.01 9.23 21.69 6.1"/>
        <polygon class="cls-20" points="21.69 6.1 21.69 11.75 27.38 7.05 21.69 6.1"/>
        <polygon class="cls-22" points="29.83 8.37 21.69 11.75 27.38 7.05 29.83 8.37"/>
        <polygon class="cls-32" points="29.83 8.37 21.69 11.75 31.63 11.12 29.83 8.37"/>
        <polygon class="cls-33" points="31.87 14.32 21.69 11.75 31.63 11.12 31.87 14.32"/>
        <polygon class="cls-2" points="31.87 14.32 21.69 11.75 30.97 16.98 31.87 14.32"/>
        <polygon class="cls-7" points="28.58 19.07 21.69 11.75 30.97 16.98 28.58 19.07"/>
        <polygon class="cls-2" points="28.58 19.07 21.69 11.75 25.17 19.85 28.58 19.07"/>
        <polygon class="cls-10" points="20.92 19.85 21.69 11.75 25.17 19.85 20.92 19.85"/>
        <polygon class="cls-21" points="20.92 19.85 21.69 11.75 16.26 19.85 20.92 19.85"/>
        <polygon class="cls-8" points="11.44 14.32 21.69 11.75 16.01 9.23 11.44 14.32"/>
        <polygon class="cls-1" points="11.44 14.32 21.69 11.75 16.26 19.85 11.44 14.32"/>
      </g>
      <g>
        <g>
          <polygon class="cls-14" points="11.53 27.36 10.79 26.68 10.54 26.83 10.68 27.85 11.53 27.36"/>
          <polygon class="cls-17" points="13.16 23.94 12.23 23.69 11.77 25.41 12.89 24.92 13.16 23.94"/>
          <polygon class="cls-3" points="14.58 27.76 14.83 26.84 14.14 26.65 13.8 27.55 14.58 27.76"/>
          <polygon class="cls-9" points="12.02 27.08 12.43 27.19 13.04 25.38 12.72 25.57 12.89 24.92 11.77 25.41 11.54 26.25 10.79 26.68 11.53 27.36 12.02 27.08"/>
          <polygon class="cls-17" points="13.8 27.55 14.14 26.65 13.2 26.4 14.15 25.85 13.67 25.02 13.04 25.38 12.43 27.19 13.8 27.55"/>
          <polygon class="cls-19" points="10.68 27.85 10.54 26.83 9.13 27.64 9.92 28.29 10.68 27.85"/>
          <path class="cls-20" d="M4.25,28.54c.06.36.12.75.16,1.04l.57.15,1.54-.58-2.27-.61Z"/>
          <path class="cls-2" d="M3.97,28.46l-.25.93.69.19c-.04-.29-.1-.68-.16-1.04l-.29-.08Z"/>
          <path class="cls-19" d="M4.98,29.72l.37.1-.26.15,1.87.19.05-.19.68-.39c.03-.33.07-.75.12-1.18l-1.28.74-1.54.58Z"/>
          <path class="cls-11" d="M9.92,28.29l-.79-.65-1.33.77c-.04.42-.09.85-.12,1.18l2.24-1.29Z"/>
          <polygon class="cls-17" points="5.39 32.28 6.31 32.53 5.83 30.65 5.39 32.28"/>
          <polygon class="cls-8" points="4.33 30.41 4.81 31.24 5.83 30.65 6.85 30.55 6.95 30.17 5.09 29.97 4.33 30.41"/>
          <polygon class="cls-29" points="6.31 32.53 6.32 32.53 6.85 30.55 5.83 30.65 6.31 32.53"/>
        </g>
        <g>
          <polygon class="cls-14" points="8.84 30.36 9.8 30.06 9.8 29.76 8.84 29.38 8.84 30.36"/>
          <polygon class="cls-17" points="11 33.48 11.67 32.8 10.41 31.54 10.27 32.76 11 33.48"/>
          <polygon class="cls-3" points="6.97 32.8 7.65 33.48 8.15 32.98 7.54 32.23 6.97 32.8"/>
          <polygon class="cls-9" points="8.84 30.93 8.54 31.23 9.8 32.65 9.8 32.29 10.27 32.76 10.41 31.54 9.8 30.93 9.8 30.06 8.84 30.36 8.84 30.93"/>
          <polygon class="cls-17" points="7.54 32.23 8.15 32.98 8.84 32.29 8.84 33.39 9.8 33.39 9.8 32.65 8.54 31.23 7.54 32.23"/>
          <polygon class="cls-19" points="8.84 29.38 9.8 29.76 9.8 28.14 8.84 28.5 8.84 29.38"/>
          <path class="cls-20" d="M11.47,23.47c-.34-.12-.71-.27-.98-.38l-.41.42-.27,1.62,1.66-1.66Z"/>
          <path class="cls-2" d="M11.67,23.26l-.68-.68-.51.51c.27.11.64.25.98.38l.21-.21Z"/>
          <path class="cls-19" d="M10.07,23.51l-.27.27v-.3l-1.1,1.52.14.14v.79c.27.19.61.44.96.69v-1.47l.27-1.62Z"/>
          <path class="cls-11" d="M8.84,28.5l.96-.36v-1.54c-.35-.25-.69-.5-.96-.69v2.58Z"/>
          <polygon class="cls-17" points="7.65 22.58 6.98 23.26 8.84 23.78 7.65 22.58"/>
          <polygon class="cls-8" points="9.8 22.6 8.84 22.6 8.84 23.78 8.42 24.71 8.7 24.99 9.8 23.47 9.8 22.6"/>
          <polygon class="cls-29" points="6.98 23.26 6.97 23.26 8.42 24.71 8.84 23.78 6.98 23.26"/>
        </g>
        <g>
          <polygon class="cls-14" points="11.05 29.64 11.27 28.65 11.02 28.51 10.2 29.15 11.05 29.64"/>
          <polygon class="cls-17" points="14.83 29.33 14.58 28.41 12.86 28.87 13.84 29.6 14.83 29.33"/>
          <polygon class="cls-3" points="12.23 32.48 13.16 32.23 12.97 31.54 12.02 31.7 12.23 32.48"/>
          <polygon class="cls-9" points="11.55 29.92 11.66 30.33 13.52 29.95 13.2 29.77 13.84 29.6 12.86 28.87 12.03 29.09 11.27 28.65 11.05 29.64 11.55 29.92"/>
          <polygon class="cls-17" points="12.02 31.7 12.97 31.54 12.72 30.6 13.67 31.15 14.15 30.32 13.52 29.95 11.66 30.33 12.02 31.7"/>
          <polygon class="cls-19" points="10.2 29.15 11.02 28.51 9.61 27.7 9.44 28.71 10.2 29.15"/>
          <path class="cls-20" d="M6.4,23.92c-.28.23-.59.48-.82.66l.15.57,1.27,1.04-.61-2.27Z"/>
          <path class="cls-2" d="M6.32,23.64l-.93.25.19.7c.23-.18.54-.43.82-.66l-.08-.29Z"/>
          <path class="cls-19" d="M5.73,25.15l.1.37-.26-.15.77,1.71.19-.05.68.39c.3-.14.69-.31,1.08-.49l-1.28-.74-1.27-1.04Z"/>
          <path class="cls-11" d="M9.44,28.71l.17-1.01-1.33-.77c-.39.17-.78.35-1.08.49l2.24,1.29Z"/>
          <polygon class="cls-17" points="3.72 26.78 3.97 27.7 5.35 26.34 3.72 26.78"/>
          <polygon class="cls-8" points="4.81 24.92 4.33 25.76 5.35 26.34 5.95 27.18 6.33 27.08 5.57 25.36 4.81 24.92"/>
          <polygon class="cls-29" points="3.97 27.7 3.97 27.71 5.95 27.18 5.35 26.34 3.97 27.7"/>
        </g>
      </g>
    </g>
  </g>
</svg>